<?xml version="1.0" encoding="utf-8"?>
<!-- Generator: Adobe Illustrator 22.1.0, SVG Export Plug-In . SVG Version: 6.00 Build 0)  -->
<svg version="1.1" id="Capa_1" xmlns="http://www.w3.org/2000/svg" xmlns:xlink="http://www.w3.org/1999/xlink" x="0px" y="0px"
	 viewBox="0 0 512 512" style="enable-background:new 0 0 512 512;" xml:space="preserve">
<style type="text/css">
	.st0{fill:#6EC4DB;}
	.st1{fill:#66B2C4;}
	.st2{fill:#FDC88E;}
	.st3{fill:#F6B47B;}
	.st4{fill:#F97579;}
	.st5{fill:#38484A;}
	.st6{fill:#8D5F3D;}
</style>
<path class="st0" d="M411.3,512c28.8-56,62.5-152,62.5-294.2C473.8,97.5,376.3,0,256,0S38.2,97.5,38.2,217.8
	C38.2,360,71.9,456,100.7,512H411.3z"/>
<path class="st1" d="M414.8,504.9C374.5,410.5,297.4,365.6,294,363.7l-25.6,20c0,0,76.5,39.3,116.4,128.3h26.5
	C412.5,509.7,413.7,507.3,414.8,504.9z"/>
<circle class="st2" cx="256" cy="217.8" r="166.4"/>
<path class="st3" d="M276.6,363.6c-91.9,0-166.4-74.5-166.4-166.4c0-40.7,14.6-78,38.9-106.9c-36.4,30.5-59.5,76.3-59.5,127.5
	c0,91.9,74.5,166.4,166.4,166.4c51.2,0,97-23.1,127.5-59.5C354.6,349,317.3,363.6,276.6,363.6z"/>
<g>
	<path class="st4" d="M355.8,266.7h-23.3c-4.3,0-7.7-3.5-7.7-7.7s3.5-7.7,7.7-7.7h23.3c4.3,0,7.7,3.5,7.7,7.7
		C363.6,263.3,360.1,266.7,355.8,266.7z"/>
	<path class="st4" d="M179.5,266.7h-23.3c-4.3,0-7.7-3.5-7.7-7.7s3.5-7.7,7.7-7.7h23.3c4.3,0,7.7,3.5,7.7,7.7
		C187.2,263.3,183.8,266.7,179.5,266.7z"/>
</g>
<g>
	<path class="st5" d="M344.2,241.6c-4.3,0-7.7-3.5-7.7-7.7v-17.1c0-4.3,3.5-7.7,7.7-7.7s7.7,3.5,7.7,7.7v17.1
		C351.9,238.1,348.4,241.6,344.2,241.6z"/>
	<path class="st5" d="M167.8,241.6c-4.3,0-7.7-3.5-7.7-7.7v-17.1c0-4.3,3.5-7.7,7.7-7.7s7.7,3.5,7.7,7.7v17.1
		C175.6,238.1,172.1,241.6,167.8,241.6z"/>
	<path class="st5" d="M256,265.8c-8.4,0-16.2-3.5-21.6-9.6c-2.8-3.2-2.5-8.1,0.7-10.9c3.2-2.8,8.1-2.5,10.9,0.7
		c2.4,2.8,6,4.3,10,4.3s7.5-1.6,10-4.3c2.8-3.2,7.7-3.5,10.9-0.7c3.2,2.8,3.5,7.7,0.7,10.9C272.2,262.3,264.4,265.8,256,265.8z"/>
</g>
<path class="st6" d="M275,108.4c-1.1,3.4-2.8,6.8-2.5,10.5c0.3,3.4,2.1,6.6,4.7,8.7c4.4,3.7,10,5.3,15.5,6.9
	c11.7,3.3,9.3,21.3-2.9,21.4c-17.2,0.1-33.9-4.4-44.3-19c-8.2-11.4-10.2-25.3-8.4-38.9c0,0,0,0,0-0.1c0,0,0,0,0,0
	c1.4-10.9,11.4-18.5,22.3-17.1c13.1,1.7,19.4,15.7,15.7,27.5C275.1,108.3,275,108.3,275,108.4z"/>
</svg>
