<?xml version="1.0" encoding="utf-8"?>
<!-- Generator: Adobe Illustrator 22.1.0, SVG Export Plug-In . SVG Version: 6.00 Build 0)  -->
<svg version="1.1" id="Layer_1" xmlns="http://www.w3.org/2000/svg" xmlns:xlink="http://www.w3.org/1999/xlink" x="0px" y="0px"
	 viewBox="0 0 512 512" style="enable-background:new 0 0 512 512;" xml:space="preserve">
<style type="text/css">
	.st0{fill:#DBD4A9;}
	.st1{fill:#FEF7C0;}
	.st2{fill:#EAE2B9;}
</style>
<path class="st0" d="M377,132.6c-3,0-5.9-1.1-8.1-3.4c-4.4-4.4-4.4-11.7,0-16.3l25-25c4.4-4.4,11.7-4.4,16.3,0
	c4.4,4.4,4.4,11.7,0,16.3l-25,25C382.9,131.6,380,132.6,377,132.6"/>
<path class="st0" d="M17.8,232.5c-2-2.2-3.2-5.1-2.9-8.2c0.3-6.3,5.7-11.1,12-10.9l35.3,1.7c6.3,0.3,11.1,5.7,10.9,12
	c-0.3,6.3-5.7,11.1-12,10.9l-35.3-1.7C22.6,236.1,19.8,234.7,17.8,232.5"/>
<path class="st0" d="M276.8,493.9c-2.3,1.8-5.3,2.8-8.4,2.3c-6.2-0.7-10.7-6.4-10.1-12.8l4.2-35.1c0.7-6.2,6.4-10.7,12.8-10.1
	c6.2,0.7,10.7,6.4,10.1,12.8l-4.2,35.1C280.8,489.4,279.1,492.1,276.8,493.9"/>
<path class="st0" d="M339.2,91.4c-1.7,0-3.4-0.6-4.6-1.9c-2.5-2.5-2.5-6.7,0-9.3L348.9,66c2.5-2.5,6.7-2.5,9.3,0
	c2.5,2.5,2.5,6.7,0,9.3l-14.2,14.2C342.6,90.7,340.9,91.4,339.2,91.4"/>
<path class="st0" d="M36.6,313.4c-1.6-0.6-2.9-1.8-3.6-3.4c-1.4-3.3,0.1-7.1,3.3-8.6l18.4-8.1c3.3-1.4,7.1,0.1,8.6,3.3
	c1.4,3.3-0.1,7.1-3.3,8.6l-18.4,8.1C39.9,314.1,38.2,314,36.6,313.4"/>
<path class="st0" d="M397.8,393.4c-0.5-1.6-0.3-3.4,0.6-4.9c1.7-3.1,5.7-4.3,8.9-2.6l17.6,9.7c3.1,1.7,4.3,5.7,2.6,8.9
	c-1.7,3.1-5.7,4.3-8.9,2.6l-17.6-9.7C399.3,396.5,398.3,395.1,397.8,393.4"/>
<path class="st0" d="M380.3,410.8c0.2-1.7,1-3.3,2.4-4.3c2.8-2.2,6.9-1.7,9.2,1.1l12.5,15.8c2.2,2.8,1.7,6.9-1.1,9.2
	c-2.8,2.2-6.9,1.7-9.2-1.1l-12.5-15.8C380.5,414.2,380.1,412.5,380.3,410.8"/>
<path class="st0" d="M119.6,412.4c1.7-0.1,3.4,0.4,4.7,1.7c2.6,2.4,2.9,6.5,0.5,9.2l-13.5,14.9c-2.4,2.6-6.5,2.9-9.2,0.5
	c-2.6-2.4-2.9-6.5-0.5-9.2l13.5-14.9C116.3,413.2,118,412.5,119.6,412.4"/>
<path class="st0" d="M237.2,76.6c-1.6,1.7-3.7,2.9-6.2,2.9c-4.9,0.3-9.2-3.6-9.5-8.6L220,43.1c-0.3-4.9,3.6-9.2,8.6-9.5
	c4.9-0.3,9.2,3.6,9.5,8.6l1.4,27.8C239.7,72.5,238.7,74.8,237.2,76.6"/>
<path class="st0" d="M181.7,96.6c-0.7,1.5-1.9,2.8-3.6,3.4c-3.3,1.3-7.1-0.4-8.5-3.7l-7.3-18.7c-1.3-3.3,0.4-7.1,3.7-8.5
	c3.3-1.3,7.1,0.4,8.5,3.7l7.3,18.7C182.5,93.3,182.3,95.1,181.7,96.6"/>
<path class="st0" d="M479.3,239.7c1.3,1.1,2.1,2.7,2.2,4.5c0.2,3.6-2.5,6.7-6.1,6.9l-20.1,1.3c-3.6,0.2-6.7-2.5-6.9-6.1
	c-0.2-3.6,2.5-6.7,6.1-6.9l20.1-1.3C476.4,237.9,478,238.5,479.3,239.7"/>
<path class="st0" d="M130.2,115.3c-0.4,1.6-1.4,3.1-2.9,4c-3,1.9-7,1-9-2.1l-10.7-17c-1.9-3-1-7,2.1-9c3-1.9,7-1,9,2.1l10.7,17
	C130.4,111.8,130.6,113.6,130.2,115.3"/>
<path class="st0" d="M467,147.7l-46.6,21c-7.2,3.3-16-0.6-19.6-8.6c-3.6-8-0.7-17.1,6.5-20.4l46.6-21c7.2-3.3,16,0.6,19.6,8.6
	C477.1,135.4,474.2,144.5,467,147.7"/>
<path class="st0" d="M284.3,36l1,51.1c0.2,7.9-6,14.5-13.7,14.6c-7.7,0.2-14.1-6.1-14.3-14l-1-51.1c-0.2-7.9,6-14.5,13.7-14.6
	S284.2,28.1,284.3,36"/>
<path class="st0" d="M76.5,91.6l37.6,34.6c5.8,5.4,6.3,14.3,1.1,20c-5.2,5.7-14.2,6-20,0.6l-37.6-34.6c-5.8-5.4-6.3-14.3-1.1-20
	C61.7,86.5,70.7,86.2,76.5,91.6"/>
<path class="st0" d="M15.2,344.5L63.8,329c7.6-2.4,15.6,1.6,17.9,9c2.3,7.4-1.9,15.3-9.4,17.7l-48.7,15.5c-7.6,2.4-15.6-1.6-17.9-9
	C3.4,354.8,7.6,346.9,15.2,344.5"/>
<path class="st0" d="M339.9,419.6l34.1,38c5.3,5.9,4.9,14.9-0.9,20c-5.8,5.2-14.7,4.6-20-1.3l-34.1-38c-5.3-5.9-4.9-14.9,0.9-20
	S334.6,413.7,339.9,419.6"/>
<path class="st0" d="M439.4,315.5l49.3,13.2c7.7,2,12.2,9.8,10.2,17.2c-2,7.5-9.8,11.9-17.5,9.8l-49.3-13.2
	c-7.7-2-12.2-9.8-10.2-17.2C423.9,317.8,431.8,313.4,439.4,315.5"/>
<path class="st0" d="M159.9,494.5c-6.8,0-12.3-5.5-12.3-12.3v-43.7c0-6.8,5.5-12.3,12.3-12.3s12.3,5.5,12.3,12.3v43.7
	C172.2,489.1,166.7,494.5,159.9,494.5"/>
<path class="st0" d="M346.5,289.2c-1.7,0-3.4-0.6-4.6-1.9"/>
<path class="st0" d="M313.4,312.9"/>
<path class="st1" d="M93.3,408L93.3,408c-26.1-26.1-86.6-176.5,6.7-269.8C219,19.3,360.5,88.5,386.6,114.7
	c13.3,13.3,159.2,166,20.9,291.2C262.9,536.6,106.2,420.8,93.3,408"/>
<path class="st2" d="M264.5,250c-2.5,0-4.8-1-6.6-2.8c-13.5-13.6,0.9-40.2,19.9-59.2c3.5-3.5,9.3-3.5,12.9,0c3.5,3.5,3.5,9.3,0,12.9
	c-16.7,16.7-20.7,30.9-19.5,33.6c3.5,3.5,3.4,9.2-0.1,12.7C269.1,249.2,266.8,250,264.5,250"/>
<path class="st2" d="M370.4,257.5c3.8,0,7.4,1.5,10.2,4.3c20.7,20.9-1.3,61.9-30.6,91.2c-5.4,5.4-14.3,5.4-19.9,0
	c-5.4-5.4-5.4-14.3,0-19.9c25.7-25.7,31.9-47.6,30.1-51.8c-5.4-5.4-5.3-14.2,0.2-19.6C363.3,258.7,366.8,257.5,370.4,257.5"/>
<path class="st2" d="M198.7,175.8c-2.5,0-4.8-1-6.6-2.8c-13.5-13.6,0.9-40.2,19.9-59.2c3.5-3.5,9.3-3.5,12.9,0
	c3.5,3.5,3.5,9.3,0,12.9c-16.7,16.7-20.7,30.9-19.5,33.6c3.5,3.5,3.4,9.2-0.1,12.7C203.3,175.1,201.1,175.8,198.7,175.8"/>
<path class="st2" d="M385,201.3c-18.3,0-42.1-14.4-61-33.3c-3.5-3.5-3.5-9.3,0-12.9c3.5-3.5,9.3-3.5,12.9,0
	c25.7,25.7,48.7,31,53.2,26.4c3.5-3.5,9.3-3.5,12.9,0c3.5,3.5,3.5,9.3,0,12.9C398.1,199.2,391.9,201.3,385,201.3"/>
<path class="st2" d="M295.2,408.3c-14.9,15.2-46.3,23.3-77.5,23.7c-5.8,0.1-10.6-4.6-10.8-10.5c-0.1-5.8,4.6-10.6,10.5-10.8
	c42.4-0.5,65.5-15.4,65.3-22.8c-0.1-5.8,4.6-10.6,10.5-10.8c5.8-0.1,10.6,4.6,10.8,10.5C304.1,395.6,300.8,402.5,295.2,408.3"/>
<path class="st2" d="M165.1,313.7L165.1,313.7L165.1,313.7 M160.4,329.9c-3,0-5.8-0.9-8.2-3.3c-3.5-3.5-3.5-9.3,0-12.9
	c2.5-2.5,5.9-3.2,9-2.3c4.3-1.7,16-9.5,30.7-24.1c3.5-3.5,9.3-3.5,12.9,0c3.5,3.5,3.5,9.3,0,12.9c-9.3,9.3-18.7,17.3-26.7,22.5
	C174.6,325,167.2,329.9,160.4,329.9"/>
<path class="st2" d="M110.8,230L110.8,230L110.8,230 M95.7,212.7c2.2-3.4,5.2-6,9.8-7c6.6-1.4,13.2,2.8,14.7,9.5
	c1,4.6-0.7,9.1-3.9,12c-1.2,6.1-0.9,25.3,5,52.7c1.4,6.6-2.8,13.2-9.5,14.7c-6.6,1.4-13.2-2.8-14.7-9.5c-3.8-17.4-6-34-6.1-47
	C90.9,232.6,90.7,220.5,95.7,212.7"/>
</svg>
