<?xml version="1.0" encoding="utf-8"?>
<!-- Generator: Adobe Illustrator 22.1.0, SVG Export Plug-In . SVG Version: 6.00 Build 0)  -->
<svg version="1.1" id="Layer_1" xmlns="http://www.w3.org/2000/svg" xmlns:xlink="http://www.w3.org/1999/xlink" x="0px" y="0px"
	 viewBox="0 0 512 512" style="enable-background:new 0 0 512 512;" xml:space="preserve">
<style type="text/css">
	.st0{fill:#FEF7C1;}
	.st1{fill:#EAE3B7;}
</style>
<g>
	<path class="st0" d="M341.1,38.7c-1.6,0.5-3.1,1-4.7,1.5c-41,13.3-69,50.4-72,93.4c-6,86.8-77.1,157.9-163.8,163.8
		c-43,2.9-80.1,31-93.4,72c-0.5,1.6-1,3.1-1.5,4.7c-22.6,69.7,31.7,140.5,104.9,136.5c195.5-10.7,356.3-171.4,367-367
		C481.6,70.4,410.8,16.1,341.1,38.7z"/>
	<g>
		<g>
			<path class="st0" d="M502.4,132h-32.6c-5.7,0-10.2-4.6-10.2-10.2s4.6-10.2,10.2-10.2h32.6c5.7,0,10.2,4.6,10.2,10.2
				S508,132,502.4,132z"/>
			<path class="st0" d="M495.1,223.2c-1.4,0-2.8-0.3-4.1-0.9l-31.5-13.8c-5.2-2.3-7.5-8.3-5.3-13.5c2.3-5.2,8.3-7.5,13.5-5.3
				l31.5,13.8c5.2,2.3,7.5,8.3,5.3,13.5C502.8,220.9,499.1,223.2,495.1,223.2z"/>
			<path class="st0" d="M126.5,310.8c-5.7,0-10.2-4.6-10.2-10.2v-30.2c0-5.7,4.6-10.2,10.2-10.2s10.2,4.6,10.2,10.2v30.2
				C136.7,306.2,132.1,310.8,126.5,310.8z"/>
			<path class="st0" d="M79.6,318.1c-4.2,0-8.2-2.6-9.7-6.9l-9.1-26c-1.9-5.3,1-11.2,6.3-13.1c5.3-1.9,11.2,1,13.1,6.3l9.1,26
				c1.9,5.3-1,11.2-6.3,13.1C81.9,317.9,80.7,318.1,79.6,318.1z"/>
			<path class="st0" d="M336.5,57.3c-2.7,0-5.5-1.1-7.5-3.3L308.3,32c-3.9-4.1-3.6-10.6,0.5-14.5c4.1-3.9,10.6-3.6,14.5,0.5
				L344,40.1c3.9,4.1,3.6,10.6-0.5,14.5C341.5,56.4,339,57.3,336.5,57.3z"/>
			<path class="st0" d="M373.6,50.6c-0.5,0-1,0-1.5-0.1c-5.6-0.8-9.5-6-8.7-11.6l4.3-29.8c0.8-5.6,6-9.5,11.6-8.7
				c5.6,0.8,9.5,6,8.7,11.6l-4.3,29.8C383,46.9,378.6,50.6,373.6,50.6z"/>
			<path class="st0" d="M274.4,506c-4.1,0-7.9-2.4-9.5-6.4L252.9,470c-2.1-5.2,0.4-11.2,5.7-13.3c5.2-2.1,11.2,0.4,13.3,5.7
				l11.9,29.6c2.1,5.2-0.4,11.2-5.7,13.3C276.9,505.8,275.6,506,274.4,506z"/>
			<path class="st0" d="M319.1,482.9c-2.3,0-4.6-0.8-6.5-2.3l-28.3-23.1c-4.4-3.6-5-10-1.5-14.4c3.6-4.4,10-5,14.4-1.5l28.3,23.1
				c4.4,3.6,5,10,1.5,14.4C325,481.6,322.1,482.9,319.1,482.9z"/>
			<path class="st0" d="M350.8,448.3c-1.7,0-3.5-0.4-5.1-1.4l-24.6-14.2c-4.9-2.8-6.6-9.1-3.8-14s9.1-6.6,14-3.8l24.6,14.2
				c4.9,2.8,6.6,9.1,3.8,14C357.8,446.5,354.4,448.3,350.8,448.3z"/>
		</g>
	</g>
	<circle class="st1" cx="355.5" cy="166" r="25.3"/>
	<circle class="st1" cx="176.2" cy="418.9" r="29.2"/>
	<circle class="st1" cx="336" cy="285.1" r="41.8"/>
	<circle class="st1" cx="382" cy="101.6" r="10.2"/>
	<circle class="st1" cx="400.7" cy="207" r="10.2"/>
	<circle class="st1" cx="319.9" cy="358.4" r="10.2"/>
	<circle class="st1" cx="225.5" cy="322.7" r="10.2"/>
	<circle class="st1" cx="102" cy="400.3" r="10.2"/>
</g>
</svg>
