<?xml version="1.0" encoding="utf-8"?>
<!-- Generator: Adobe Illustrator 22.1.0, SVG Export Plug-In . SVG Version: 6.00 Build 0)  -->
<svg version="1.1" id="Capa_1" xmlns="http://www.w3.org/2000/svg" xmlns:xlink="http://www.w3.org/1999/xlink" x="0px" y="0px"
	 viewBox="0 0 512 512" style="enable-background:new 0 0 512 512;" xml:space="preserve">
<style type="text/css">
	.st0{fill:#EAE1B2;}
	.st1{fill:#FEF7C0;}
</style>
<g>
	<g>
		<path class="st0" d="M245.3,86.3c-5.9,0-10.7-4.8-10.7-10.7v-64c0-5.9,4.8-10.7,10.7-10.7c5.9,0,10.7,4.8,10.7,10.7v64
			C256,81.6,251.2,86.3,245.3,86.3z"/>
		<path class="st0" d="M288,513c-5.9,0-10.7-4.8-10.7-10.7v-64c0-5.9,4.8-10.7,10.7-10.7s10.7,4.8,10.7,10.7v64
			C298.7,508.2,293.9,513,288,513z"/>
		<path class="st0" d="M501.3,321h-64c-5.9,0-10.7-4.8-10.7-10.7s4.8-10.7,10.7-10.7h64c5.9,0,10.7,4.8,10.7,10.7
			S507.2,321,501.3,321z"/>
		<path class="st0" d="M74.7,257h-64C4.8,257,0,252.2,0,246.3s4.8-10.7,10.7-10.7h64c5.9,0,10.7,4.8,10.7,10.7
			C85.3,252.2,80.6,257,74.7,257z"/>
		<path class="st0" d="M138.7,129c-2.8,0-5.5-1.1-7.6-3.1L88.4,83.2c-4.1-4.2-4-11,0.3-15.1c4.1-4,10.7-4,14.8,0l42.7,42.7
			c4.2,4.2,4.1,10.9,0,15.1C144.2,127.9,141.5,129,138.7,129z"/>
		<path class="st0" d="M394.7,150.3c-5.9,0-10.7-4.8-10.7-10.6c0-2.8,1.1-5.6,3.1-7.6l42.7-42.7c4.1-4.2,10.8-4.4,15.1-0.3
			c4.2,4.1,4.4,10.8,0.3,15.1c-0.1,0.1-0.2,0.2-0.3,0.3l-42.7,42.7C400.2,149.2,397.5,150.3,394.7,150.3z"/>
		<path class="st0" d="M96,427.7c-5.9,0-10.7-4.8-10.7-10.6c0-2.8,1.1-5.6,3.1-7.6l32-32c4.2-4.1,11-4,15.1,0.3c4,4.1,4,10.7,0,14.8
			l-32,32C101.5,426.5,98.8,427.7,96,427.7z"/>
		<path class="st0" d="M181.3,491.7c-1.4,0-2.7-0.3-4-0.8c-5.5-2.2-8.1-8.4-6-13.9c0,0,0,0,0,0l21.3-53.3c2.2-5.5,8.4-8.1,13.9-6
			s8.1,8.4,6,13.9l-21.3,53.3C189.6,489,185.7,491.7,181.3,491.7z"/>
		<path class="st0" d="M458.7,470.3c-2.8,0-5.5-1.1-7.6-3.1l-32-32c-4.1-4.2-4-11,0.3-15.1c4.1-4,10.7-4,14.8,0l32,32
			c4.2,4.2,4.1,10.9,0,15.1C464.2,469.2,461.5,470.3,458.7,470.3z"/>
		<path class="st0" d="M373.3,491.7c-4.9,0-9.1-3.3-10.3-8.1l-10.7-42.7c-1.3-5.7,2.3-11.5,8.1-12.7c5.6-1.3,11.1,2.1,12.6,7.6
			l10.7,42.7c1.4,5.7-2.1,11.5-7.8,12.9C375.1,491.6,374.2,491.7,373.3,491.7z"/>
		<path class="st0" d="M480,406.3c-1.7,0-3.3-0.4-4.8-1.1l-42.7-21.3c-5.3-2.6-7.4-9-4.8-14.3c2.6-5.3,9-7.4,14.3-4.8l0,0l42.7,21.3
			c5.3,2.6,7.4,9,4.8,14.3C487.8,404,484.1,406.3,480,406.3z"/>
		<path class="st0" d="M437.3,235.7c-5.9,0-10.7-4.8-10.7-10.7c0-4,2.3-7.7,5.9-9.5l42.7-21.3c5.3-2.6,11.7-0.5,14.3,4.8
			c2.6,5.3,0.5,11.7-4.8,14.3l-42.7,21.3C440.6,235.3,439,235.7,437.3,235.7z"/>
		<path class="st0" d="M341.3,97c-5.9,0-10.7-4.8-10.6-10.7c0-1.9,0.5-3.8,1.5-5.5l32-53.3c3.1-5,9.7-6.5,14.7-3.4
			c4.9,3,6.5,9.4,3.6,14.4l-32,53.3C348.6,95,345.1,97,341.3,97z"/>
		<path class="st0" d="M181.3,97c-4.4,0-8.3-2.7-9.9-6.7L150.1,37c-2.2-5.5,0.5-11.7,6-13.9s11.7,0.5,13.9,6l21.3,53.3
			c2.2,5.5-0.5,11.7-5.9,13.9c0,0,0,0,0,0C184,96.8,182.7,97,181.3,97z"/>
		<path class="st0" d="M96,171.7c-1.1,0-2.3-0.2-3.4-0.6l-64-21.3c-5.5-2.1-8.3-8.2-6.2-13.7c2-5.2,7.6-8,13-6.5l64,21.3
			c5.6,1.9,8.6,7.9,6.7,13.5C104.6,168.7,100.6,171.7,96,171.7z"/>
		<path class="st0" d="M32,363.7c-5.9,0-10.7-4.8-10.7-10.6c0-3.8,2-7.2,5.2-9.2l53.3-32c5.1-2.9,11.6-1.2,14.6,3.9
			c2.9,5,1.3,11.3-3.6,14.4l-53.3,32C35.8,363.1,33.9,363.7,32,363.7z"/>
	</g>
</g>
<path class="st1" d="M448.9,328.4c-0.4-12.2-0.9-25.4-0.9-39.4c0-101.5-71.4-224-160-224h-11.7c-47.4-0.5-96.4-0.9-166.4,67.1
	C80.4,162.9,64.4,204.3,65.7,247c-1.5,48.7,14.1,96.5,44.1,134.9C149.9,422,247.3,449,352,449c38.7,0,63.7-7.3,78.9-23
	C451.8,404.2,450.5,370.7,448.9,328.4z"/>
<circle class="st0" cx="192" cy="246.3" r="74.7"/>
<g>
	<g>
		<path class="st0" d="M245.3,385c-5.9,0-10.7-4.8-10.7-10.7s4.8-10.7,10.7-10.7c8.5,0,15.6-5.8,26.4-15.4
			c15.3-16.5,36.5-26.3,58.9-27.3c5.9,0,10.7,4.8,10.7,10.7s-4.8,10.7-10.7,10.7c-17.3,1.1-33.4,8.9-44.8,21.9
			C275.5,376.1,261,383.5,245.3,385z"/>
		<path class="st0" d="M330.7,193c-24.8-1.3-46.7-16.6-56.5-39.4c-10-15.7-16.3-24.6-28.8-24.6c-5.9,0-10.7-4.8-10.7-10.7
			s4.8-10.7,10.7-10.7c24.9,0,36.5,18.3,46.8,34.5c10,15.8,18.7,29.5,38.5,29.5c5.9,0,10.7,4.8,10.7,10.7
			C341.3,188.2,336.6,193,330.7,193z"/>
	</g>
</g>
</svg>
