<?xml version="1.0" encoding="utf-8"?>
<!-- Generator: Adobe Illustrator 22.1.0, SVG Export Plug-In . SVG Version: 6.00 Build 0)  -->
<svg version="1.1" id="Layer_1" xmlns="http://www.w3.org/2000/svg" xmlns:xlink="http://www.w3.org/1999/xlink" x="0px" y="0px"
	 viewBox="0 0 500 500" style="enable-background:new 0 0 500 500;" xml:space="preserve">
<style type="text/css">
	.st0{fill:#E09E46;}
	.st1{fill:#EDBD78;}
</style>
<g>
	<g>
		<path class="st0" d="M440.8,259.2c-1.2-1.2-1.9-2.8-1.8-4.5c0-3.5,2.9-6.4,6.5-6.4l19.9,0.1c3.5,0,6.4,2.9,6.4,6.5
			c0,3.5-2.9,6.4-6.5,6.4l-19.9-0.1C443.5,261.1,441.9,260.3,440.8,259.2"/>
		<path class="st0" d="M11.2,256.9c-1.2-1.2-1.9-2.8-1.8-4.5c0-3.5,2.9-6.4,6.5-6.4l19.9,0.1c3.5,0,6.4,2.9,6.4,6.5
			c0,3.5-2.9,6.4-6.5,6.4l-19.9-0.1C14,258.7,12.3,258,11.2,256.9"/>
		<path class="st0" d="M440.7,318.4l-16.1-16.3c-2.5-2.5-2.5-6.6,0-9.1s6.6-2.5,9.1,0l16.1,16.3c2.5,2.5,2.5,6.6,0,9.1
			C447.2,321,443.2,321,440.7,318.4"/>
		<path class="st0" d="M425,216.1c-2.5-2.5-2.5-6.6,0-9.1l16.3-16.1c2.5-2.5,6.6-2.5,9.1,0l0,0c2.5,2.5,2.5,6.6,0,9.1l-16.3,16.1
			C431.6,218.6,427.5,218.6,425,216.1L425,216.1z"/>
		<path class="st0" d="M47.2,214l-16.1-16.3c-2.5-2.5-2.5-6.6,0-9.1c2.5-2.5,6.6-2.5,9.1,0L56.3,205c2.5,2.5,2.5,6.6,0,9.1
			S49.7,216.6,47.2,214"/>
		<path class="st0" d="M30.5,316.2c-2.5-2.5-2.5-6.6,0-9.1l16.3-16.1c2.5-2.5,6.6-2.5,9.1,0c2.5,2.5,2.5,6.6,0,9.1l-16.3,16.1
			C37,318.8,33,318.8,30.5,316.2"/>
		<path class="st0" d="M294.8,350.9c-1.2-1.2-1.9-2.8-1.8-4.5l0.1-26.4c0-3.5,2.9-6.4,6.5-6.4c3.5,0,6.4,2.9,6.4,6.5l-0.1,26.4
			c0,3.5-2.9,6.4-6.5,6.4C297.7,352.8,296,352.1,294.8,350.9"/>
		<path class="st0" d="M374.1,351.3c-1.2-1.2-1.9-2.8-1.8-4.5l0.1-26.4c0-3.5,2.9-6.4,6.5-6.4c3.5,0,6.4,2.9,6.4,6.5l-0.1,26.4
			c0,3.5-2.9,6.4-6.5,6.4C376.9,353.2,375.3,352.5,374.1,351.3"/>
		<path class="st0" d="M375.1,192.7c-1.2-1.2-1.9-2.8-1.8-4.5l0.1-26.4c0-3.5,2.9-6.4,6.5-6.4c3.5,0,6.4,2.9,6.4,6.5l-0.1,26.4
			c0,3.5-2.9,6.4-6.5,6.4C377.8,194.6,376.2,193.9,375.1,192.7"/>
		<path class="st0" d="M255.2,344.1c-1.2-1.2-1.9-2.8-1.8-4.5l0.1-19.9c0-3.5,2.9-6.4,6.5-6.4c3.5,0,6.4,2.9,6.4,6.5l-0.1,19.9
			c0,3.5-2.9,6.4-6.5,6.4C258,346,256.4,345.3,255.2,344.1"/>
		<path class="st0" d="M215.6,350.5c-1.2-1.2-1.9-2.8-1.8-4.5l0.1-26.4c0-3.5,2.9-6.4,6.5-6.4c3.5,0,6.4,2.9,6.4,6.5l-0.1,26.4
			c0,3.5-2.9,6.4-6.5,6.4C218.3,352.4,216.7,351.6,215.6,350.5"/>
		<path class="st0" d="M176,343.7c-1.2-1.2-1.9-2.8-1.8-4.5l0.1-19.9c0-3.5,2.9-6.4,6.5-6.4c3.5,0,6.4,2.9,6.4,6.5l-0.1,19.9
			c0,3.5-2.9,6.4-6.5,6.4C178.7,345.6,177.1,344.8,176,343.7"/>
		<path class="st0" d="M176.8,191.7c-1.2-1.2-1.9-2.8-1.8-4.5l0.1-19.9c0-3.5,2.9-6.4,6.5-6.4c3.5,0,6.4,2.9,6.4,6.5l-0.1,19.9
			c0,3.5-2.9,6.4-6.5,6.4C179.5,193.6,177.9,192.8,176.8,191.7"/>
		<path class="st0" d="M136.3,350c-1.2-1.2-1.9-2.8-1.8-4.5l0.1-26.4c0-3.5,2.9-6.4,6.5-6.4c3.5,0,6.4,2.9,6.4,6.5l-0.1,26.4
			c0,3.5-2.9,6.4-6.5,6.4C139,352,137.4,351.2,136.3,350"/>
		<path class="st0" d="M96.6,343.2c-1.2-1.2-1.9-2.8-1.8-4.5l0.1-19.9c0-3.5,2.9-6.4,6.5-6.4c3.5,0,6.4,2.9,6.4,6.5l-0.1,19.9
			c0,3.5-2.9,6.4-6.5,6.4C99.4,345.1,97.8,344.4,96.6,343.2"/>
		<path class="st0" d="M295.7,192.3c-1.2-1.2-1.9-2.8-1.8-4.5l0.1-26.5c0-3.5,2.9-6.4,6.5-6.4c3.5,0,6.4,2.9,6.4,6.5l-0.1,26.4
			c0,3.5-2.9,6.4-6.5,6.4C298.5,194.2,296.9,193.5,295.7,192.3"/>
		<path class="st0" d="M256.1,192.1c-1.2-1.2-1.9-2.8-1.8-4.5l0.1-19.9c0-3.5,2.9-6.4,6.5-6.4c3.5,0,6.4,2.9,6.4,6.5l-0.1,19.9
			c0,3.5-2.9,6.4-6.5,6.4C258.8,194,257.2,193.3,256.1,192.1"/>
		<path class="st0" d="M137.1,191.5c-1.2-1.2-1.9-2.8-1.8-4.5l0.1-26.4c0-3.5,2.9-6.4,6.5-6.4c3.5,0,6.4,2.9,6.4,6.5l-0.1,26.4
			c0,3.5-2.9,6.4-6.5,6.4C139.9,193.3,138.2,192.6,137.1,191.5"/>
		<path class="st0" d="M97.4,191.2c-1.2-1.2-1.9-2.8-1.8-4.5l0.1-19.9c0-3.5,2.9-6.4,6.5-6.4c3.5,0,6.4,2.9,6.4,6.5l-0.1,19.9
			c0,3.5-2.9,6.4-6.5,6.4C100.2,193.2,98.6,192.4,97.4,191.2"/>
		<path class="st0" d="M216.4,191.9c-1.2-1.2-1.9-2.8-1.8-4.5l0.1-26.4c0-3.5,2.9-6.4,6.5-6.4c3.5,0,6.4,2.9,6.4,6.5l-0.1,26.4
			c0,3.5-2.9,6.4-6.5,6.4C219.1,193.8,217.6,193.1,216.4,191.9"/>
		<path class="st0" d="M335.3,192.5c-1.2-1.2-1.9-2.8-1.8-4.5l0.1-19.9c0-3.5,2.9-6.4,6.5-6.4c3.5,0,6.4,2.9,6.4,6.5l-0.1,19.9
			c0,3.5-2.9,6.4-6.5,6.4C338.1,194.4,336.5,193.7,335.3,192.5"/>
		<path class="st0" d="M334.5,344.5c-1.2-1.2-1.9-2.8-1.8-4.5l0.1-19.9c0-3.5,2.9-6.4,6.5-6.4c3.5,0,6.4,2.9,6.4,6.5l-0.1,19.9
			c0,3.5-2.9,6.4-6.5,6.4C337.3,346.4,335.7,345.7,334.5,344.5"/>
	</g>
	<path class="st1" d="M35.6,252.4L35.6,252.4c0.2-36.5,29.9-66,66.4-65.7l277.6,1.4c36.5,0.2,66,29.9,65.7,66.4
		c-0.2,36.5-29.9,66-66.4,65.7l-277.5-1.4C64.8,318.7,35.4,289,35.6,252.4"/>
	<g>
		<path class="st0" d="M288.9,245.3c-1.2-1.2-1.9-2.9-1.9-4.7c0.1-13.5,20.6-19.5,39.6-19.4c3.5,0,6.4,2.9,6.4,6.5
			c0,3.5-2.9,6.4-6.5,6.4c-16.7-0.1-25.8,4.9-26.6,6.9c0,3.5-2.9,6.3-6.4,6.3C291.5,247.2,290.1,246.4,288.9,245.3"/>
		<path class="st0" d="M373.3,281.6c-9.1-9.2-13.7-28.3-13.6-47.2c0-3.5,2.9-6.4,6.5-6.4c3.5,0,6.4,2.9,6.4,6.5
			c-0.1,25.7,8.7,39.9,13.2,39.9c3.5,0,6.4,2.9,6.4,6.5c0,3.5-2.9,6.4-6.5,6.4C380.9,287.1,376.7,285.1,373.3,281.6"/>
		<path class="st0" d="M207.4,226.9L207.4,226.9L207.4,226.9 M196.9,232.6c-1.5-1.5-2.4-3.3-2.4-5.8c0-3.5,2.9-6.4,6.5-6.4
			c2.5,0,4.5,1.4,5.6,3.3c3,1.3,12.7,3.3,27.4,3.4c3.5,0,6.4,2.9,6.4,6.5c0,3.5-2.9,6.4-6.5,6.4c-9.3,0-18-0.8-24.6-2.2
			C206.5,237.3,200.3,236.1,196.9,232.6"/>
		<path class="st0" d="M226.9,279.9L226.9,279.9L226.9,279.9z M215.9,284.4c-1.2-1.2-1.9-2.8-1.8-4.5c0-3.5,0.1-13,46.2-12.8
			c3.5,0,6.4,2.9,6.4,6.5c0,3.5-2.9,6.4-6.5,6.4c-18.7-0.1-30.7,2-34.2,3.3c-1.2,1.8-3.2,3-5.5,3
			C218.7,286.3,217.1,285.6,215.9,284.4L215.9,284.4z"/>
		<path class="st0" d="M120.1,246.1c-7-7-11.4-19.1-11.4-33c0-3.5,2.9-6.4,6.5-6.4c3.5,0,6.4,2.9,6.4,6.5
			c-0.1,15.3,6.9,26.6,13.2,26.7c3.5,0,6.4,2.9,6.4,6.5c0,3.5-2.9,6.4-6.5,6.4C129.2,252.8,124.2,250.3,120.1,246.1"/>
		<path class="st0" d="M63.9,290.2c-1.2-1.2-1.9-2.8-1.8-4.5c0.1-19,6.4-39.4,19.9-39.4c3.5,0,6.4,2.9,6.4,6.5
			c0,3.5-2.8,6.3-6.3,6.4c-2,1.1-7.1,10.2-7.1,26.6c0,3.5-2.9,6.4-6.5,6.4C66.7,292.1,65.1,291.4,63.9,290.2"/>
	</g>
</g>
<image style="overflow:visible;" width="153" height="430" xlink:href="E2B60E0C.jpg"  transform="matrix(0.7499 0 0 0.7499 506 100)">
</image>
</svg>
