<?xml version="1.0" encoding="utf-8"?>
<!-- Generator: Adobe Illustrator 22.1.0, SVG Export Plug-In . SVG Version: 6.00 Build 0)  -->
<svg version="1.1" id="Capa_1" xmlns="http://www.w3.org/2000/svg" xmlns:xlink="http://www.w3.org/1999/xlink" x="0px" y="0px"
	 viewBox="0 0 512.1 512.1" style="enable-background:new 0 0 512.1 512.1;" xml:space="preserve">
<style type="text/css">
	.st0{fill:#FEF7C0;}
	.st1{fill:#EFE8B9;}
</style>
<path class="st0" d="M373.4,44.8c-49.3-2.9-95.3,24.6-116,69.4c-4.5,7.9-10.7,21.1-11,21.9c-7.8,15.9-62.4,31.1-97.1,36.7
	C66.9,172.8,0,239.6,0,322.1s66.8,149.4,149.2,149.4c58.6,0,111.9-34.3,136.1-87.7c18.2-23.5,53.1-61.7,88.1-61.7
	c76.6,0,138.7-62.1,138.7-138.7S450,44.8,373.4,44.8z"/>
<path class="st1" d="M149.4,428.8c-16.1,0-31.9-3.6-46.4-10.7c-5.3-2.6-7.5-8.9-4.9-14.3c2.6-5.3,8.9-7.5,14.3-4.9l0,0
	c11.6,5.6,24.2,8.6,37.1,8.5c6-0.1,11,4.6,11.4,10.6c0.4,5.5-3.8,10.3-9.4,10.7c-0.1,0-0.2,0-0.3,0L149.4,428.8z M192.6,418.5
	c-5.9,0-10.7-4.8-10.7-10.7c0-4,2.3-7.7,5.8-9.5c11.5-5.8,21.5-14.1,29.3-24.3c3.4-4.8,10.1-6,14.9-2.5s6,10.1,2.6,14.9
	c-0.2,0.2-0.3,0.4-0.5,0.7c-9.8,12.7-22.3,23.1-36.6,30.4C195.9,418.1,194.2,418.5,192.6,418.5z M74.2,392.5c-3.3,0-6.3-1.5-8.4-4
	c-10-12.6-17-27.2-20.6-42.9c-1.5-5.7,2-11.5,7.7-13c5.7-1.5,11.5,2,13,7.7c0.1,0.2,0.1,0.4,0.1,0.6c2.9,12.5,8.5,24.3,16.5,34.3
	c3.7,4.6,2.9,11.3-1.7,15C79,391.7,76.6,392.6,74.2,392.5L74.2,392.5z M248.7,355c-5.9,0-10.7-4.8-10.7-10.7c0-2.5,0.8-4.8,2.4-6.8
	c9.4-11.6,19.6-22.5,30.5-32.7c4.3-4,11.1-3.7,15.1,0.6c4,4.3,3.7,11.1-0.6,15.1l0,0c-10.2,9.5-19.7,19.6-28.4,30.5
	C254.9,353.5,251.8,354.9,248.7,355L248.7,355z M55.9,311c-0.8,0-1.6-0.1-2.4-0.3c-5.7-1.3-9.3-7.1-8-12.8
	c3.7-15.6,10.8-30.2,20.9-42.7c3.6-4.7,10.3-5.5,15-2c4.7,3.6,5.5,10.3,2,15c-0.1,0.1-0.2,0.3-0.3,0.4c-8.1,10-13.8,21.6-16.7,34.1
	C65.1,307.6,60.8,311,55.9,311z M312.6,297.4c-5.9,0-10.7-4.8-10.7-10.7c0-3.8,2-7.3,5.3-9.2c13.4-8,28-13.8,43.2-17.1
	c5.7-1.4,11.5,2.1,12.9,7.8c1.4,5.7-2.1,11.5-7.8,12.9c-0.3,0.1-0.5,0.1-0.8,0.2c-13,2.8-25.4,7.7-36.8,14.5
	C316.3,296.8,314.5,297.4,312.6,297.4z M395.4,276.6c-5.9,0-10.7-4.8-10.7-10.7c0-4.8,3.2-9,7.9-10.3c12.2-3.3,23.4-9.6,32.6-18.4
	c4.1-4.2,10.8-4.4,15.1-0.3c4.2,4.1,4.4,10.8,0.3,15.1c-0.2,0.2-0.4,0.4-0.6,0.5c-11.7,11.3-26.1,19.5-41.9,23.7
	C397.2,276.5,396.3,276.6,395.4,276.6L395.4,276.6z M108.4,246c-5.9,0-10.7-4.7-10.7-10.6c0-4.1,2.4-7.9,6.1-9.7
	c14.3-6.8,29.8-10.3,45.6-10.2c6,0,10.9,4.7,11.1,10.7c0.2,5.7-4.3,10.5-10,10.7c-0.1,0-0.2,0-0.3,0c-12.9-0.1-25.6,2.7-37.2,8.2
	C111.5,245.7,110,246,108.4,246z M192.7,229.2c-5.9,0-10.7-4.8-10.6-10.7c0-4.9,3.4-9.2,8.2-10.3c13.6-3.1,26.9-7.2,39.9-12.2
	c5.5-2.1,11.7,0.6,13.8,6.1s-0.6,11.7-6.1,13.8c-13.9,5.3-28.2,9.7-42.7,13.1C194.4,229.1,193.5,229.2,192.7,229.2z M455.1,219.2
	c-5.9,0-10.7-4.8-10.7-10.7c0-1.1,0.2-2.1,0.5-3.1c2.1-7.1,3.2-14.5,3.2-21.9c0-5.2-0.6-10.4-1.6-15.4c-1.2-5.8,2.5-11.4,8.2-12.6
	c0,0,0,0,0,0c5.7-1.1,11.4,2.5,12.7,8.2c1.4,6.5,2.1,13.2,2.1,19.9c0,9.6-1.4,19.1-4.3,28.2C463.8,216.2,459.7,219.2,455.1,219.2
	L455.1,219.2L455.1,219.2z M271.9,196.1c-5.9,0-10.7-4.8-10.7-10.7c0-3.4,1.6-6.5,4.3-8.5c8.1-5.8,14.7-13.3,19.3-22.1
	c0.1-0.4,1.4-3.2,1.6-3.6l2.1-4.3c2.6-5.3,9-7.5,14.3-4.9s7.5,9,4.9,14.3L306,160c0,0.3-1,2.3-1.1,2.6
	c-6.1,12.4-15.2,23.2-26.4,31.3C276.6,195.4,274.3,196.2,271.9,196.1z M437.9,138.3c-3.1,0-6-1.3-8.1-3.7
	c-8.3-9.6-18.9-16.9-30.8-21.3c-5.5-2-8.4-8.2-6.3-13.7c2-5.5,8.2-8.4,13.7-6.3c15.3,5.6,28.9,15.1,39.6,27.4
	c3.9,4.4,3.4,11.2-1.1,15C443,137.4,440.5,138.3,437.9,138.3L437.9,138.3z M321.2,126.2c-5.9,0-10.7-4.8-10.7-10.7
	c0-2.9,1.2-5.7,3.3-7.7c12.4-11.4,28.3-18.3,45.1-19.6c5.9-0.7,11.1,3.6,11.8,9.4c0.7,5.9-3.6,11.1-9.4,11.8
	c-12.2,0.8-23.8,5.7-32.8,13.9C326.5,125.2,323.9,126.2,321.2,126.2z"/>
<g>
	<g>
		
			<ellipse transform="matrix(7.088901e-02 -0.9975 0.9975 7.088901e-02 -182.5108 448.3582)" class="st1" cx="149.4" cy="322.1" rx="42.7" ry="42.7"/>
		<circle class="st1" cx="373.4" cy="183.5" r="32"/>
	</g>
</g>
</svg>
