<?xml version="1.0" encoding="utf-8"?>
<!-- Generator: Adobe Illustrator 22.1.0, SVG Export Plug-In . SVG Version: 6.00 Build 0)  -->
<svg version="1.1" id="Layer_1" xmlns="http://www.w3.org/2000/svg" xmlns:xlink="http://www.w3.org/1999/xlink" x="0px" y="0px"
	 viewBox="0 0 500 500" style="enable-background:new 0 0 500 500;" xml:space="preserve">
<style type="text/css">
	.st0{fill:#E09E46;}
	.st1{fill:#EDBD78;}
	.st2{fill:#EACCA7;}
</style>
<g>
	<g>
		<path class="st0" d="M-41.2,71.2c-1.2-1.2-1.9-2.8-1.8-4.5c0-3.5,2.9-6.4,6.5-6.4l19.9,0.1c3.5,0,6.4,2.9,6.4,6.5
			c0,3.5-2.9,6.4-6.5,6.4l-19.9-0.1C-38.5,73.1-40.1,72.3-41.2,71.2"/>
		<path class="st0" d="M-470.8,68.9c-1.2-1.2-1.9-2.8-1.8-4.5c0-3.5,2.9-6.4,6.5-6.4l19.9,0.1c3.5,0,6.4,2.9,6.4,6.5
			c0,3.5-2.9,6.4-6.5,6.4l-19.9-0.1C-468,70.7-469.7,70-470.8,68.9"/>
		<path class="st0" d="M-41.3,130.4l-16.1-16.3c-2.5-2.5-2.5-6.6,0-9.1c2.5-2.5,6.6-2.5,9.1,0l16.1,16.3c2.5,2.5,2.5,6.6,0,9.1
			C-34.8,133-38.8,133-41.3,130.4"/>
		<path class="st0" d="M-57,28.1c-2.5-2.5-2.5-6.6,0-9.1l16.3-16.1c2.5-2.5,6.6-2.5,9.1,0l0,0c2.5,2.5,2.5,6.6,0,9.1l-16.3,16.1
			C-50.4,30.6-54.5,30.6-57,28.1L-57,28.1z"/>
		<path class="st0" d="M-434.8,26l-16.1-16.3c-2.5-2.5-2.5-6.6,0-9.1c2.5-2.5,6.6-2.5,9.1,0l16.1,16.3c2.5,2.5,2.5,6.6,0,9.1
			C-428.3,28.5-432.3,28.6-434.8,26"/>
		<path class="st0" d="M-451.5,128.2c-2.5-2.5-2.5-6.6,0-9.1l16.3-16.1c2.5-2.5,6.6-2.5,9.1,0c2.5,2.5,2.5,6.6,0,9.1l-16.3,16.1
			C-445,130.8-449,130.8-451.5,128.2"/>
		<path class="st0" d="M-187.2,162.9c-1.2-1.2-1.9-2.8-1.8-4.5l0.1-26.4c0-3.5,2.9-6.4,6.5-6.4c3.5,0,6.4,2.9,6.4,6.5l-0.1,26.4
			c0,3.5-2.9,6.4-6.5,6.4C-184.3,164.8-186,164.1-187.2,162.9"/>
		<path class="st0" d="M-107.9,163.3c-1.2-1.2-1.9-2.8-1.8-4.5l0.1-26.4c0-3.5,2.9-6.4,6.5-6.4c3.5,0,6.4,2.9,6.4,6.5l-0.1,26.4
			c0,3.5-2.9,6.4-6.5,6.4C-105.1,165.2-106.7,164.5-107.9,163.3"/>
		<path class="st0" d="M-106.9,4.7c-1.2-1.2-1.9-2.8-1.8-4.5l0.1-26.4c0-3.5,2.9-6.4,6.5-6.4c3.5,0,6.4,2.9,6.4,6.5l-0.1,26.4
			c0,3.5-2.9,6.4-6.5,6.4C-104.2,6.6-105.8,5.9-106.9,4.7"/>
		<path class="st0" d="M-226.8,156.1c-1.2-1.2-1.9-2.8-1.8-4.5l0.1-19.9c0-3.5,2.9-6.4,6.5-6.4c3.5,0,6.4,2.9,6.4,6.5l-0.1,19.9
			c0,3.5-2.9,6.4-6.5,6.4C-224,158-225.6,157.3-226.8,156.1"/>
		<path class="st0" d="M-266.4,162.5c-1.2-1.2-1.9-2.8-1.8-4.5l0.1-26.4c0-3.5,2.9-6.4,6.5-6.4c3.5,0,6.4,2.9,6.4,6.5l-0.1,26.4
			c0,3.5-2.9,6.4-6.5,6.4C-263.7,164.4-265.3,163.6-266.4,162.5"/>
		<path class="st0" d="M-306,155.7c-1.2-1.2-1.9-2.8-1.8-4.5l0.1-19.9c0-3.5,2.9-6.4,6.5-6.4c3.5,0,6.4,2.9,6.4,6.5l-0.1,19.9
			c0,3.5-2.9,6.4-6.5,6.4C-303.3,157.6-304.9,156.8-306,155.7"/>
		<path class="st0" d="M-305.2,3.7c-1.2-1.2-1.9-2.8-1.8-4.5l0.1-19.9c0-3.5,2.9-6.4,6.5-6.4c3.5,0,6.4,2.9,6.4,6.5l-0.1,19.9
			c0,3.5-2.9,6.4-6.5,6.4C-302.5,5.6-304.1,4.8-305.2,3.7"/>
		<path class="st0" d="M-345.7,162c-1.2-1.2-1.9-2.8-1.8-4.5l0.1-26.4c0-3.5,2.9-6.4,6.5-6.4c3.5,0,6.4,2.9,6.4,6.5l-0.1,26.4
			c0,3.5-2.9,6.4-6.5,6.4C-343,164-344.6,163.2-345.7,162"/>
		<path class="st0" d="M-385.4,155.2c-1.2-1.2-1.9-2.8-1.8-4.5l0.1-19.9c0-3.5,2.9-6.4,6.5-6.4c3.5,0,6.4,2.9,6.4,6.5l-0.1,19.9
			c0,3.5-2.9,6.4-6.5,6.4C-382.6,157.1-384.2,156.4-385.4,155.2"/>
		<path class="st0" d="M-186.3,4.3c-1.2-1.2-1.9-2.8-1.8-4.5l0.1-26.5c0-3.5,2.9-6.4,6.5-6.4c3.5,0,6.4,2.9,6.4,6.5l-0.1,26.4
			c0,3.5-2.9,6.4-6.5,6.4C-183.5,6.2-185.1,5.5-186.3,4.3"/>
		<path class="st0" d="M-225.9,4.1c-1.2-1.2-1.9-2.8-1.8-4.5l0.1-19.9c0-3.5,2.9-6.4,6.5-6.4c3.5,0,6.4,2.9,6.4,6.5l-0.1,19.9
			c0,3.5-2.9,6.4-6.5,6.4C-223.2,6-224.8,5.3-225.9,4.1"/>
		<path class="st0" d="M-344.9,3.5c-1.2-1.2-1.9-2.8-1.8-4.5l0.1-26.4c0-3.5,2.9-6.4,6.5-6.4c3.5,0,6.4,2.9,6.4,6.5L-333.9-1
			c0,3.5-2.9,6.4-6.5,6.4C-342.1,5.3-343.8,4.6-344.9,3.5"/>
		<path class="st0" d="M-384.6,3.2c-1.2-1.2-1.9-2.8-1.8-4.5l0.1-19.9c0-3.5,2.9-6.4,6.5-6.4c3.5,0,6.4,2.9,6.4,6.5l-0.1,19.9
			c0,3.5-2.9,6.4-6.5,6.4C-381.8,5.2-383.4,4.4-384.6,3.2"/>
		<path class="st0" d="M-265.6,3.9c-1.2-1.2-1.9-2.8-1.8-4.5l0.1-26.4c0-3.5,2.9-6.4,6.5-6.4c3.5,0,6.4,2.9,6.4,6.5l-0.1,26.4
			c0,3.5-2.9,6.4-6.5,6.4C-262.9,5.8-264.4,5.1-265.6,3.9"/>
		<path class="st0" d="M-146.7,4.5c-1.2-1.2-1.9-2.8-1.8-4.5l0.1-19.9c0-3.5,2.9-6.4,6.5-6.4c3.5,0,6.4,2.9,6.4,6.5L-135.6,0
			c0,3.5-2.9,6.4-6.5,6.4C-143.9,6.4-145.5,5.7-146.7,4.5"/>
		<path class="st0" d="M-147.5,156.5c-1.2-1.2-1.9-2.8-1.8-4.5l0.1-19.9c0-3.5,2.9-6.4,6.5-6.4c3.5,0,6.4,2.9,6.4,6.5l-0.1,19.9
			c0,3.5-2.9,6.4-6.5,6.4C-144.7,158.4-146.3,157.7-147.5,156.5"/>
	</g>
	<path class="st1" d="M-446.4,64.4L-446.4,64.4c0.2-36.5,29.9-66,66.4-65.7l277.6,1.4c36.5,0.2,66,29.9,65.7,66.4
		c-0.2,36.5-29.9,66-66.4,65.7l-277.5-1.4C-417.2,130.7-446.6,101-446.4,64.4"/>
	<g>
		<path class="st0" d="M-193.1,57.3c-1.2-1.2-1.9-2.9-1.9-4.7c0.1-13.5,20.6-19.5,39.6-19.4c3.5,0,6.4,2.9,6.4,6.5
			c0,3.5-2.9,6.4-6.5,6.4c-16.7-0.1-25.8,4.9-26.6,6.9c0,3.5-2.9,6.3-6.4,6.3C-190.5,59.2-191.9,58.4-193.1,57.3"/>
		<path class="st0" d="M-108.7,93.6c-9.1-9.2-13.7-28.3-13.6-47.2c0-3.5,2.9-6.4,6.5-6.4c3.5,0,6.4,2.9,6.4,6.5
			c-0.1,25.7,8.7,39.9,13.2,39.9c3.5,0,6.4,2.9,6.4,6.5c0,3.5-2.9,6.4-6.5,6.4C-101.1,99.1-105.3,97.1-108.7,93.6"/>
		<path class="st0" d="M-274.6,38.9L-274.6,38.9L-274.6,38.9 M-285.1,44.6c-1.5-1.5-2.4-3.3-2.4-5.8c0-3.5,2.9-6.4,6.5-6.4
			c2.5,0,4.5,1.4,5.6,3.3c3,1.3,12.7,3.3,27.4,3.4c3.5,0,6.4,2.9,6.4,6.5c0,3.5-2.9,6.4-6.5,6.4c-9.3,0-18-0.8-24.6-2.2
			C-275.5,49.3-281.7,48.1-285.1,44.6"/>
		<path class="st0" d="M-255.1,91.9L-255.1,91.9L-255.1,91.9z M-266.1,96.4c-1.2-1.2-1.9-2.8-1.8-4.5c0-3.5,0.1-13,46.2-12.8
			c3.5,0,6.4,2.9,6.4,6.5c0,3.5-2.9,6.4-6.5,6.4c-18.7-0.1-30.7,2-34.2,3.3c-1.2,1.8-3.2,3-5.5,3C-263.3,98.3-264.9,97.6-266.1,96.4
			L-266.1,96.4z"/>
		<path class="st0" d="M-361.9,58.1c-7-7-11.4-19.1-11.4-33c0-3.5,2.9-6.4,6.5-6.4c3.5,0,6.4,2.9,6.4,6.5
			c-0.1,15.3,6.9,26.6,13.2,26.7c3.5,0,6.4,2.9,6.4,6.5c0,3.5-2.9,6.4-6.5,6.4C-352.8,64.8-357.8,62.3-361.9,58.1"/>
		<path class="st0" d="M-418.1,102.2c-1.2-1.2-1.9-2.8-1.8-4.5c0.1-19,6.4-39.4,19.9-39.4c3.5,0,6.4,2.9,6.4,6.5
			c0,3.5-2.8,6.3-6.3,6.4c-2,1.1-7.1,10.2-7.1,26.6c0,3.5-2.9,6.4-6.5,6.4C-415.3,104.1-416.9,103.4-418.1,102.2"/>
	</g>
</g>
<image style="overflow:visible;" width="153" height="430" xlink:href="7AF1BF1E.jpg"  transform="matrix(0.7499 0 0 0.7499 506 100)">
</image>
<path class="st1" d="M129.5,85.5c-23,33.7-23.1,78-0.2,111.7c3.7,6.6,10.4,16.6,10.8,17.1c7.9,12.3-4.5,57.5-15.3,84.4
	C89.7,357.2,108.6,433,167,468.1s134.3,16.3,169.4-42.1c24.9-41.5,23.3-93.9-4.2-133.8c-8.9-22.9-21.1-63.9-6.2-88.7
	c32.6-54.3,15-124.7-39.2-157.3S162.1,31.3,129.5,85.5z"/>
<path class="st2" d="M306.2,407.7c-6.9,11.4-16.1,21.1-27.3,28.3c-4.1,2.6-9.5,1.5-12.2-2.6c-2.6-4.1-1.5-9.5,2.6-12.2l0,0
	c8.9-5.8,16.4-13.5,21.8-22.7c2.5-4.3,7.9-5.8,12.4-3.6c4.1,2.1,5.7,7.1,3.6,11.2c0,0.1-0.1,0.1-0.1,0.2L306.2,407.7z M317.3,372.7
	c-2.5,4.2-8,5.5-12.1,3c-2.8-1.7-4.5-4.9-4.3-8.2c0.8-10.6-0.8-21.2-4.7-31.1c-2-4.5,0-9.7,4.6-11.6c4.5-1.9,9.7,0,11.7,4.5
	c0.1,0.2,0.2,0.4,0.3,0.7c4.8,12.3,6.9,25.6,6,38.9C318.5,370.2,318,371.6,317.3,372.7z M248.5,445.5c-1.4,2.3-3.7,3.8-6.4,4.2
	c-13.2,1.7-26.5,0.5-39.2-3.7c-4.7-1.4-7.3-6.3-5.9-11c1.4-4.7,6.3-7.3,11-5.9c0.2,0,0.3,0.1,0.5,0.2c10.1,3.3,20.8,4.3,31.3,2.9
	c4.8-0.7,9.2,2.8,9.9,7.6C250,441.8,249.6,443.9,248.5,445.5L248.5,445.5z M296.2,305.9c-2.5,4.2-8,5.5-12.1,3
	c-1.8-1.1-3.1-2.6-3.8-4.6c-4.2-11.6-7.6-23.5-10.2-35.5c-1-4.7,2.1-9.4,6.9-10.4c4.7-1,9.4,2.1,10.4,6.9l0,0
	c2.4,11.3,5.5,22.3,9.5,33.1C297.8,300.9,297.5,303.7,296.2,305.9L296.2,305.9z M183,423.8c-0.3,0.6-0.8,1.1-1.2,1.6
	c-3.3,3.5-9,3.6-12.5,0.2c-9.5-9.3-16.8-20.5-21.4-33c-1.8-4.6,0.5-9.6,5-11.5c4.6-1.8,9.6,0.5,11.5,5c0,0.1,0.1,0.3,0.2,0.4
	c3.6,10,9.4,19,17.1,26.3C184.5,415.8,185.1,420.3,183,423.8z M282.6,236.1c-2.5,4.2-8,5.5-12.1,3c-2.7-1.6-4.3-4.5-4.3-7.7
	c0-12.9,2.1-25.7,6.3-37.9c1.4-4.6,6.4-7.3,11-5.8c4.6,1.4,7.3,6.4,5.8,11c-0.1,0.3-0.1,0.4-0.2,0.7c-3.5,10.4-5.4,21.3-5.4,32.2
	C283.7,233.2,283.4,234.8,282.6,236.1z M303.1,168.6c-2.5,4.2-8,5.5-12.1,3c-3.4-2-5-6.1-3.9-10c2.9-10,3.2-20.7,0.8-30.9
	c-1.2-4.7,1.5-9.5,6.2-10.8c4.7-1.2,9.5,1.5,10.8,6.2c0.1,0.2,0.1,0.5,0.1,0.6c3,13.1,2.7,26.8-1,39.8
	C303.8,167.3,303.5,168,303.1,168.6L303.1,168.6z M159.3,358.9c-2.5,4.2-7.9,5.6-12.1,3.1c-2.9-1.7-4.6-5.1-4.3-8.5
	c1.3-13,5.4-25.5,12.2-36.7c2.6-4.3,8-5.7,12.3-3.3c4.1,2.3,5.6,7.5,3.3,11.6c0,0.1-0.1,0.1-0.1,0.2c-5.6,9.1-9,19.3-10,29.8
	C160.4,356.6,159.9,357.8,159.3,358.9z M183.2,292.1c-2.5,4.2-8,5.5-12.1,3c-3.5-2.1-5.1-6.3-3.8-10.2c3.6-11,6.3-22.1,8.3-33.5
	c0.9-4.8,5.4-8,10.2-7.2c4.8,0.9,8,5.4,7.2,10.2c-2.2,12.1-5.1,24.1-8.9,35.8C183.9,290.8,183.6,291.5,183.2,292.1z M287.8,101.9
	c-2.5,4.2-8,5.5-12.1,3c-0.8-0.5-1.4-1-2-1.7c-4.1-4.5-8.9-8.4-14.2-11.6c-3.7-2.2-7.6-4-11.6-5.4c-4.6-1.6-7-6.6-5.4-11.2l0,0
	c1.6-4.5,6.6-7,11.2-5.5c5.2,1.8,10.2,4.1,15,7c6.8,4.1,12.9,9.1,18.2,15C289.4,94.4,289.8,98.6,287.8,101.9L287.8,101.9
	L287.8,101.9z M193.5,221.8c-2.5,4.2-8,5.5-12.1,3c-2.4-1.4-3.9-3.9-4.2-6.7c-0.7-8.2-3.2-16.1-7.4-23.1c-0.2-0.2-1.7-2.4-1.9-2.7
	l-2.2-3.3c-2.6-4.1-1.5-9.6,2.6-12.2c4.1-2.6,9.6-1.5,12.2,2.6l1.9,2.8c0.2,0.1,1.2,1.7,1.4,1.9c6.2,9.6,10,20.6,10.9,32
	C195,218.2,194.6,220.2,193.5,221.8z M223.2,79.6c-1.3,2.2-3.5,3.7-6.1,4.2c-10.3,1.8-20,6.2-28.2,12.8c-3.8,3-9.4,2.5-12.4-1.4
	c-3-3.8-2.5-9.4,1.4-12.4c10.5-8.5,23-14.1,36.3-16.4c4.8-0.9,9.4,2.4,10.2,7.2C224.7,75.6,224.3,77.8,223.2,79.6L223.2,79.6z
	 M165,157.2c-2.5,4.2-8,5.5-12.1,3c-2.1-1.2-3.5-3.3-4.1-5.6c-2.8-13.6-0.9-27.8,5.3-40.3c2-4.5,7.3-6.3,11.7-4.4
	c4.5,2,6.3,7.3,4.4,11.7c-4.6,9-6.1,19.3-4.1,29.2C166.5,153,166.1,155.3,165,157.2z"/>
<g>
	<g>
		<g>
			
				<ellipse transform="matrix(0.7071 -0.7071 0.7071 0.7071 -188.6407 269.2343)" class="st2" cx="230.7" cy="362.3" rx="35.3" ry="35.3"/>
			<circle class="st2" cx="227.8" cy="144.6" r="26.5"/>
		</g>
	</g>
</g>
</svg>
