<?xml version="1.0" encoding="utf-8"?>
<!-- Generator: Adobe Illustrator 22.1.0, SVG Export Plug-In . SVG Version: 6.00 Build 0)  -->
<svg version="1.1" id="Layer_1" xmlns="http://www.w3.org/2000/svg" xmlns:xlink="http://www.w3.org/1999/xlink" x="0px" y="0px"
	 viewBox="0 0 512 512" style="enable-background:new 0 0 512 512;" xml:space="preserve">
<style type="text/css">
	.st0{fill:#DBD4A9;}
	.st1{fill:#FEF7C0;}
</style>
<g>
	<g>
		<path class="st0" d="M447.8,72.7c-2.2,0-4.4-0.8-6-2.5c-3.3-3.3-3.3-8.7,0-12.1l18.6-18.6c3.3-3.3,8.7-3.3,12.1,0
			c3.3,3.3,3.3,8.7,0,12.1l-18.6,18.6C452.2,71.9,450,72.7,447.8,72.7"/>
		<path class="st0" d="M45.7,474.9c-2.2,0-4.4-0.8-6-2.5c-3.3-3.3-3.3-8.7,0-12.1l18.6-18.6c3.3-3.3,8.7-3.3,12.1,0
			c3.3,3.3,3.3,8.7,0,12.1l-18.6,18.6C50,474,47.8,474.9,45.7,474.9"/>
		<path class="st0" d="M503.5,128h-30.3c-4.7,0-8.5-3.8-8.5-8.5s3.8-8.5,8.5-8.5h30.3c4.7,0,8.5,3.8,8.5,8.5
			C512,124.2,508.2,128,503.5,128"/>
		<path class="st0" d="M392.6,47.4c-4.7,0-8.5-3.8-8.5-8.5l0-30.3c0-4.7,3.8-8.5,8.5-8.5h0c4.7,0,8.5,3.8,8.5,8.5l0,30.3
			C401.1,43.5,397.3,47.4,392.6,47.4L392.6,47.4z"/>
		<path class="st0" d="M38.8,401.1H8.5c-4.7,0-8.5-3.8-8.5-8.5s3.8-8.5,8.5-8.5h30.3c4.7,0,8.5,3.8,8.5,8.5S43.6,401.1,38.8,401.1"
			/>
		<path class="st0" d="M119.5,512c-4.7,0-8.5-3.8-8.5-8.5v-30.3c0-4.7,3.8-8.5,8.5-8.5c4.7,0,8.5,3.8,8.5,8.5v30.3
			C128,508.2,124.2,512,119.5,512"/>
		<path class="st0" d="M398.3,295.5c-2.2,0-4.4-0.8-6-2.5l-24.7-24.7c-3.3-3.3-3.3-8.7,0-12.1c3.3-3.3,8.7-3.3,12.1,0l24.7,24.7
			c3.3,3.3,3.3,8.7,0,12.1C402.7,294.6,400.5,295.5,398.3,295.5"/>
		<path class="st0" d="M472.5,221.2c-2.2,0-4.4-0.8-6-2.5L441.8,194c-3.3-3.3-3.3-8.7,0-12.1c3.3-3.3,8.7-3.3,12.1,0l24.7,24.7
			c3.3,3.3,3.3,8.7,0,12.1C476.9,220.4,474.7,221.2,472.5,221.2"/>
		<path class="st0" d="M324.1,72.7c-2.2,0-4.4-0.8-6-2.5l-24.7-24.7c-3.3-3.3-3.3-8.7,0-12.1c3.3-3.3,8.7-3.3,12.1,0l24.7,24.7
			c3.3,3.3,3.3,8.7,0,12.1C328.4,71.9,326.2,72.7,324.1,72.7"/>
		<path class="st0" d="M355,326.4c-2.2,0-4.4-0.8-6-2.5l-18.6-18.6c-3.3-3.3-3.3-8.7,0-12.1c3.3-3.3,8.7-3.3,12.1,0l18.6,18.6
			c3.3,3.3,3.3,8.7,0,12.1C359.4,325.6,357.2,326.4,355,326.4"/>
		<path class="st0" d="M324.1,369.7c-2.2,0-4.4-0.8-6-2.5l-24.7-24.7c-3.3-3.3-3.3-8.7,0-12.1c3.3-3.3,8.7-3.3,12.1,0l24.7,24.7
			c3.3,3.3,3.3,8.7,0,12.1C328.4,368.9,326.2,369.7,324.1,369.7"/>
		<path class="st0" d="M280.8,400.6c-2.2,0-4.4-0.8-6-2.5l-18.6-18.6c-3.3-3.3-3.3-8.7,0-12.1c3.3-3.3,8.7-3.3,12.1,0l18.6,18.6
			c3.3,3.3,3.3,8.7,0,12.1C285.1,399.8,282.9,400.6,280.8,400.6"/>
		<path class="st0" d="M138.5,258.3c-2.2,0-4.4-0.8-6-2.5l-18.6-18.6c-3.3-3.3-3.3-8.7,0-12.1c3.3-3.3,8.7-3.3,12.1,0l18.6,18.6
			c3.3,3.3,3.3,8.7,0,12.1C142.8,257.5,140.6,258.3,138.5,258.3"/>
		<path class="st0" d="M249.8,443.9c-2.2,0-4.4-0.8-6-2.5L219,416.7c-3.3-3.3-3.3-8.7,0-12.1c3.3-3.3,8.7-3.3,12.1,0l24.7,24.7
			c3.3,3.3,3.3,8.7,0,12.1C254.2,443.1,252,443.9,249.8,443.9"/>
		<path class="st0" d="M206.5,474.9c-2.2,0-4.4-0.8-6-2.5l-18.6-18.6c-3.3-3.3-3.3-8.7,0-12.1c3.3-3.3,8.7-3.3,12.1,0l18.6,18.6
			c3.3,3.3,3.3,8.7,0,12.1C210.9,474,208.7,474.9,206.5,474.9"/>
		<path class="st0" d="M249.8,147c-2.2,0-4.4-0.8-6-2.5L219,119.7c-3.3-3.3-3.3-8.7,0-12.1c3.3-3.3,8.7-3.3,12.1,0l24.7,24.7
			c3.3,3.3,3.3,8.7,0,12.1C254.2,146.2,252,147,249.8,147"/>
		<path class="st0" d="M212.7,184.1c-2.2,0-4.4-0.8-6-2.5L188.1,163c-3.3-3.3-3.3-8.7,0-12.1c3.3-3.3,8.7-3.3,12.1,0l18.6,18.6
			c3.3,3.3,3.3,8.7,0,12.1C217.1,183.3,214.9,184.1,212.7,184.1"/>
		<path class="st0" d="M101.3,295.5c-2.2,0-4.4-0.8-6-2.5l-24.7-24.7c-3.3-3.3-3.3-8.7,0-12.1c3.3-3.3,8.7-3.3,12.1,0l24.7,24.7
			c3.3,3.3,3.3,8.7,0,12.1C105.7,294.6,103.5,295.5,101.3,295.5"/>
		<path class="st0" d="M64.2,332.6c-2.2,0-4.4-0.8-6-2.5l-18.6-18.6c-3.3-3.3-3.3-8.7,0-12.1c3.3-3.3,8.7-3.3,12.1,0L70.3,318
			c3.3,3.3,3.3,8.7,0,12.1C68.6,331.8,66.4,332.6,64.2,332.6"/>
		<path class="st0" d="M175.6,221.2c-2.2,0-4.4-0.8-6-2.5L144.8,194c-3.3-3.3-3.3-8.7,0-12.1c3.3-3.3,8.7-3.3,12.1,0l24.7,24.7
			c3.3,3.3,3.3,8.7,0,12.1C179.9,220.4,177.8,221.2,175.6,221.2"/>
		<path class="st0" d="M286.9,109.9c-2.2,0-4.4-0.8-6-2.5l-18.6-18.6c-3.3-3.3-3.3-8.7,0-12.1c3.3-3.3,8.7-3.3,12.1,0L293,95.3
			c3.3,3.3,3.3,8.7,0,12.1C291.3,109,289.1,109.9,286.9,109.9"/>
		<path class="st0" d="M429.2,252.2c-2.2,0-4.4-0.8-6-2.5l-18.6-18.6c-3.3-3.3-3.3-8.7,0-12.1c3.3-3.3,8.7-3.3,12.1,0l18.6,18.6
			c3.3,3.3,3.3,8.7,0,12.1C433.6,251.3,431.4,252.2,429.2,252.2"/>
	</g>
	<path class="st1" d="M64.2,447.8L64.2,447.8c-34.2-34.2-34.2-89.6,0-123.7L324,64.2c34.2-34.2,89.6-34.2,123.7,0
		c34.2,34.2,34.2,89.6,0,123.7L188,447.8C153.8,482,98.4,482,64.2,447.8"/>
	<g>
		<path class="st0" d="M293.3,202.7c-2.3,0-4.5-0.9-6.2-2.6c-12.6-12.7,0.8-37.6,18.6-55.4c3.3-3.3,8.7-3.3,12.1,0
			c3.3,3.3,3.3,8.7,0,12.1c-15.6,15.6-19.4,28.9-18.3,31.5c3.3,3.3,3.2,8.6-0.1,11.9C297.6,202,295.5,202.7,293.3,202.7"/>
		<path class="st0" d="M406.1,157.1c-17.1,0-39.4-13.5-57.1-31.2c-3.3-3.3-3.3-8.7,0-12.1c3.3-3.3,8.7-3.3,12.1,0
			c24.1,24.1,45.6,29,49.8,24.7c3.3-3.3,8.7-3.3,12.1,0c3.3,3.3,3.3,8.7,0,12.1C418.4,155.1,412.6,157.1,406.1,157.1"/>
		<path class="st0" d="M200.2,262.3C200.2,262.3,200.2,262.3,200.2,262.3C200.2,262.3,200.2,262.3,200.2,262.3 M195.8,277.5
			c-2.8,0-5.4-0.8-7.7-3.1c-3.3-3.3-3.3-8.7,0-12.1c2.3-2.3,5.5-3,8.4-2.2c4-1.6,15-8.9,28.7-22.6c3.3-3.3,8.7-3.3,12.1,0
			c3.3,3.3,3.3,8.7,0,12.1c-8.7,8.7-17.5,16.2-25,21.1C209.1,272.9,202.2,277.5,195.8,277.5"/>
		<path class="st0" d="M268.2,293.3L268.2,293.3L268.2,293.3z M262.2,307.8c-2.2,0-4.4-0.8-6-2.5c-3.3-3.3-12.2-12.2,30.9-55.4
			c3.3-3.3,8.7-3.3,12.1,0c3.3,3.3,3.3,8.7,0,12.1c-17.5,17.5-26.7,30.8-28.7,35.3c0.6,2.8-0.1,5.8-2.3,8
			C266.6,307,264.4,307.8,262.2,307.8L262.2,307.8z"/>
		<path class="st0" d="M136.9,362.4c-13.1,0-28.6-7-41.6-20c-3.3-3.3-3.3-8.7,0-12.1c3.3-3.3,8.7-3.3,12.1,0
			c14.3,14.3,31.5,18.3,37.4,12.4c3.3-3.3,8.7-3.3,12.1,0c3.3,3.3,3.3,8.7,0,12.1C151.7,360,144.7,362.4,136.9,362.4"/>
		<path class="st0" d="M126.1,456.3c-2.2,0-4.4-0.8-6-2.5c-17.8-17.8-31.2-42.7-18.6-55.4c3.3-3.3,8.7-3.3,12.1,0
			c3.3,3.3,3.3,8.5,0.2,11.9c-0.9,2.9,3,16.1,18.4,31.4c3.3,3.3,3.3,8.7,0,12.1C130.5,455.5,128.3,456.3,126.1,456.3"/>
	</g>
</g>
</svg>
