<?xml version="1.0" encoding="utf-8"?>
<!-- Generator: Adobe Illustrator 22.1.0, SVG Export Plug-In . SVG Version: 6.00 Build 0)  -->
<svg version="1.1" id="Layer_1" xmlns="http://www.w3.org/2000/svg" xmlns:xlink="http://www.w3.org/1999/xlink" x="0px" y="0px"
	 viewBox="0 0 512 512" style="enable-background:new 0 0 512 512;" xml:space="preserve">
<style type="text/css">
	.st0{fill:#FEF7C0;}
</style>
<circle class="st0" cx="273.8" cy="235.3" r="165.6"/>
<path class="st0" d="M349.1,172.8c-10.4,0-20.8-4-28.7-11.9c-15.8-15.8-15.8-41.5,0-57.3l85.7-85.7c15.8-15.8,41.5-15.8,57.4,0
	c15.8,15.8,15.8,41.5,0,57.3l-85.7,85.7C369.8,168.8,359.5,172.8,349.1,172.8z"/>
<path class="st0" d="M460.3,445.1c-10.4,0-20.8-4-28.7-11.9l-74.4-74.4c-15.8-15.8-15.8-41.5,0-57.3c15.8-15.8,41.5-15.8,57.4,0
	l74.4,74.4c15.8,15.8,15.8,41.5,0,57.3C481.1,441.1,470.7,445.1,460.3,445.1z"/>
<path class="st0" d="M180.8,250.1c-7.8,6.8-18.2,10.7-29.4,10l-105-6.9C24,251.7,7.1,232.4,8.6,210.1c1.5-22.4,20.8-39.3,43.1-37.8
	l105,6.9c22.3,1.5,39.3,20.8,37.8,43.1C193.8,233.4,188.6,243.2,180.8,250.1z"/>
<path class="st0" d="M289.9,510c-19.4,0-36.6-14-39.9-33.8l-16.2-95.6c-3.7-22.1,11.1-43,33.2-46.7c22.2-3.7,43,11.1,46.7,33.2
	l16.2,95.6c3.7,22.1-11.1,43-33.2,46.7C294.5,509.8,292.2,510,289.9,510z"/>
</svg>
