<?xml version="1.0" encoding="utf-8"?>
<!-- Generator: Adobe Illustrator 22.1.0, SVG Export Plug-In . SVG Version: 6.00 Build 0)  -->
<svg version="1.1" id="Layer_1" xmlns="http://www.w3.org/2000/svg" xmlns:xlink="http://www.w3.org/1999/xlink" x="0px" y="0px"
	 viewBox="0 0 500 500" style="enable-background:new 0 0 500 500;" xml:space="preserve">
<style type="text/css">
	.st0{fill:#E09E46;}
	.st1{fill:#EDBD78;}
	.st2{fill:#EDBD78;stroke:#F7930F;stroke-miterlimit:10;}
</style>
<g>
	<g>
		<path class="st0" d="M-41.2,71.2c-1.2-1.2-1.9-2.8-1.8-4.5c0-3.5,2.9-6.4,6.5-6.4l19.9,0.1c3.5,0,6.4,2.9,6.4,6.5
			c0,3.5-2.9,6.4-6.5,6.4l-19.9-0.1C-38.5,73.1-40.1,72.3-41.2,71.2"/>
		<path class="st0" d="M-470.8,68.9c-1.2-1.2-1.9-2.8-1.8-4.5c0-3.5,2.9-6.4,6.5-6.4l19.9,0.1c3.5,0,6.4,2.9,6.4,6.5
			c0,3.5-2.9,6.4-6.5,6.4l-19.9-0.1C-468,70.7-469.7,70-470.8,68.9"/>
		<path class="st0" d="M-41.3,130.4l-16.1-16.3c-2.5-2.5-2.5-6.6,0-9.1c2.5-2.5,6.6-2.5,9.1,0l16.1,16.3c2.5,2.5,2.5,6.6,0,9.1
			C-34.8,133-38.8,133-41.3,130.4"/>
		<path class="st0" d="M-57,28.1c-2.5-2.5-2.5-6.6,0-9.1l16.3-16.1c2.5-2.5,6.6-2.5,9.1,0l0,0c2.5,2.5,2.5,6.6,0,9.1l-16.3,16.1
			C-50.4,30.6-54.5,30.6-57,28.1L-57,28.1z"/>
		<path class="st0" d="M-434.8,26l-16.1-16.3c-2.5-2.5-2.5-6.6,0-9.1c2.5-2.5,6.6-2.5,9.1,0l16.1,16.3c2.5,2.5,2.5,6.6,0,9.1
			C-428.3,28.5-432.3,28.6-434.8,26"/>
		<path class="st0" d="M-451.5,128.2c-2.5-2.5-2.5-6.6,0-9.1l16.3-16.1c2.5-2.5,6.6-2.5,9.1,0c2.5,2.5,2.5,6.6,0,9.1l-16.3,16.1
			C-445,130.8-449,130.8-451.5,128.2"/>
		<path class="st0" d="M-187.2,162.9c-1.2-1.2-1.9-2.8-1.8-4.5l0.1-26.4c0-3.5,2.9-6.4,6.5-6.4c3.5,0,6.4,2.9,6.4,6.5l-0.1,26.4
			c0,3.5-2.9,6.4-6.5,6.4C-184.3,164.8-186,164.1-187.2,162.9"/>
		<path class="st0" d="M-107.9,163.3c-1.2-1.2-1.9-2.8-1.8-4.5l0.1-26.4c0-3.5,2.9-6.4,6.5-6.4c3.5,0,6.4,2.9,6.4,6.5l-0.1,26.4
			c0,3.5-2.9,6.4-6.5,6.4C-105.1,165.2-106.7,164.5-107.9,163.3"/>
		<path class="st0" d="M-106.9,4.7c-1.2-1.2-1.9-2.8-1.8-4.5l0.1-26.4c0-3.5,2.9-6.4,6.5-6.4c3.5,0,6.4,2.9,6.4,6.5l-0.1,26.4
			c0,3.5-2.9,6.4-6.5,6.4C-104.2,6.6-105.8,5.9-106.9,4.7"/>
		<path class="st0" d="M-226.8,156.1c-1.2-1.2-1.9-2.8-1.8-4.5l0.1-19.9c0-3.5,2.9-6.4,6.5-6.4c3.5,0,6.4,2.9,6.4,6.5l-0.1,19.9
			c0,3.5-2.9,6.4-6.5,6.4C-224,158-225.6,157.3-226.8,156.1"/>
		<path class="st0" d="M-266.4,162.5c-1.2-1.2-1.9-2.8-1.8-4.5l0.1-26.4c0-3.5,2.9-6.4,6.5-6.4c3.5,0,6.4,2.9,6.4,6.5l-0.1,26.4
			c0,3.5-2.9,6.4-6.5,6.4C-263.7,164.4-265.3,163.6-266.4,162.5"/>
		<path class="st0" d="M-306,155.7c-1.2-1.2-1.9-2.8-1.8-4.5l0.1-19.9c0-3.5,2.9-6.4,6.5-6.4c3.5,0,6.4,2.9,6.4,6.5l-0.1,19.9
			c0,3.5-2.9,6.4-6.5,6.4C-303.3,157.6-304.9,156.8-306,155.7"/>
		<path class="st0" d="M-305.2,3.7c-1.2-1.2-1.9-2.8-1.8-4.5l0.1-19.9c0-3.5,2.9-6.4,6.5-6.4c3.5,0,6.4,2.9,6.4,6.5l-0.1,19.9
			c0,3.5-2.9,6.4-6.5,6.4C-302.5,5.6-304.1,4.8-305.2,3.7"/>
		<path class="st0" d="M-345.7,162c-1.2-1.2-1.9-2.8-1.8-4.5l0.1-26.4c0-3.5,2.9-6.4,6.5-6.4c3.5,0,6.4,2.9,6.4,6.5l-0.1,26.4
			c0,3.5-2.9,6.4-6.5,6.4C-343,164-344.6,163.2-345.7,162"/>
		<path class="st0" d="M-385.4,155.2c-1.2-1.2-1.9-2.8-1.8-4.5l0.1-19.9c0-3.5,2.9-6.4,6.5-6.4c3.5,0,6.4,2.9,6.4,6.5l-0.1,19.9
			c0,3.5-2.9,6.4-6.5,6.4C-382.6,157.1-384.2,156.4-385.4,155.2"/>
		<path class="st0" d="M-186.3,4.3c-1.2-1.2-1.9-2.8-1.8-4.5l0.1-26.5c0-3.5,2.9-6.4,6.5-6.4c3.5,0,6.4,2.9,6.4,6.5l-0.1,26.4
			c0,3.5-2.9,6.4-6.5,6.4C-183.5,6.2-185.1,5.5-186.3,4.3"/>
		<path class="st0" d="M-225.9,4.1c-1.2-1.2-1.9-2.8-1.8-4.5l0.1-19.9c0-3.5,2.9-6.4,6.5-6.4c3.5,0,6.4,2.9,6.4,6.5l-0.1,19.9
			c0,3.5-2.9,6.4-6.5,6.4C-223.2,6-224.8,5.3-225.9,4.1"/>
		<path class="st0" d="M-344.9,3.5c-1.2-1.2-1.9-2.8-1.8-4.5l0.1-26.4c0-3.5,2.9-6.4,6.5-6.4c3.5,0,6.4,2.9,6.4,6.5L-333.9-1
			c0,3.5-2.9,6.4-6.5,6.4C-342.1,5.3-343.8,4.6-344.9,3.5"/>
		<path class="st0" d="M-384.6,3.2c-1.2-1.2-1.9-2.8-1.8-4.5l0.1-19.9c0-3.5,2.9-6.4,6.5-6.4c3.5,0,6.4,2.9,6.4,6.5l-0.1,19.9
			c0,3.5-2.9,6.4-6.5,6.4C-381.8,5.2-383.4,4.4-384.6,3.2"/>
		<path class="st0" d="M-265.6,3.9c-1.2-1.2-1.9-2.8-1.8-4.5l0.1-26.4c0-3.5,2.9-6.4,6.5-6.4c3.5,0,6.4,2.9,6.4,6.5l-0.1,26.4
			c0,3.5-2.9,6.4-6.5,6.4C-262.9,5.8-264.4,5.1-265.6,3.9"/>
		<path class="st0" d="M-146.7,4.5c-1.2-1.2-1.9-2.8-1.8-4.5l0.1-19.9c0-3.5,2.9-6.4,6.5-6.4c3.5,0,6.4,2.9,6.4,6.5L-135.6,0
			c0,3.5-2.9,6.4-6.5,6.4C-143.9,6.4-145.5,5.7-146.7,4.5"/>
		<path class="st0" d="M-147.5,156.5c-1.2-1.2-1.9-2.8-1.8-4.5l0.1-19.9c0-3.5,2.9-6.4,6.5-6.4c3.5,0,6.4,2.9,6.4,6.5l-0.1,19.9
			c0,3.5-2.9,6.4-6.5,6.4C-144.7,158.4-146.3,157.7-147.5,156.5"/>
	</g>
	<path class="st1" d="M-446.4,64.4L-446.4,64.4c0.2-36.5,29.9-66,66.4-65.7l277.6,1.4c36.5,0.2,66,29.9,65.7,66.4
		c-0.2,36.5-29.9,66-66.4,65.7l-277.5-1.4C-417.2,130.7-446.6,101-446.4,64.4"/>
	<g>
		<path class="st0" d="M-193.1,57.3c-1.2-1.2-1.9-2.9-1.9-4.7c0.1-13.5,20.6-19.5,39.6-19.4c3.5,0,6.4,2.9,6.4,6.5
			c0,3.5-2.9,6.4-6.5,6.4c-16.7-0.1-25.8,4.9-26.6,6.9c0,3.5-2.9,6.3-6.4,6.3C-190.5,59.2-191.9,58.4-193.1,57.3"/>
		<path class="st0" d="M-108.7,93.6c-9.1-9.2-13.7-28.3-13.6-47.2c0-3.5,2.9-6.4,6.5-6.4c3.5,0,6.4,2.9,6.4,6.5
			c-0.1,25.7,8.7,39.9,13.2,39.9c3.5,0,6.4,2.9,6.4,6.5c0,3.5-2.9,6.4-6.5,6.4C-101.1,99.1-105.3,97.1-108.7,93.6"/>
		<path class="st0" d="M-274.6,38.9L-274.6,38.9L-274.6,38.9 M-285.1,44.6c-1.5-1.5-2.4-3.3-2.4-5.8c0-3.5,2.9-6.4,6.5-6.4
			c2.5,0,4.5,1.4,5.6,3.3c3,1.3,12.7,3.3,27.4,3.4c3.5,0,6.4,2.9,6.4,6.5c0,3.5-2.9,6.4-6.5,6.4c-9.3,0-18-0.8-24.6-2.2
			C-275.5,49.3-281.7,48.1-285.1,44.6"/>
		<path class="st0" d="M-255.1,91.9L-255.1,91.9L-255.1,91.9z M-266.1,96.4c-1.2-1.2-1.9-2.8-1.8-4.5c0-3.5,0.1-13,46.2-12.8
			c3.5,0,6.4,2.9,6.4,6.5c0,3.5-2.9,6.4-6.5,6.4c-18.7-0.1-30.7,2-34.2,3.3c-1.2,1.8-3.2,3-5.5,3C-263.3,98.3-264.9,97.6-266.1,96.4
			L-266.1,96.4z"/>
		<path class="st0" d="M-361.9,58.1c-7-7-11.4-19.1-11.4-33c0-3.5,2.9-6.4,6.5-6.4c3.5,0,6.4,2.9,6.4,6.5
			c-0.1,15.3,6.9,26.6,13.2,26.7c3.5,0,6.4,2.9,6.4,6.5c0,3.5-2.9,6.4-6.5,6.4C-352.8,64.8-357.8,62.3-361.9,58.1"/>
		<path class="st0" d="M-418.1,102.2c-1.2-1.2-1.9-2.8-1.8-4.5c0.1-19,6.4-39.4,19.9-39.4c3.5,0,6.4,2.9,6.4,6.5
			c0,3.5-2.8,6.3-6.3,6.4c-2,1.1-7.1,10.2-7.1,26.6c0,3.5-2.9,6.4-6.5,6.4C-415.3,104.1-416.9,103.4-418.1,102.2"/>
	</g>
</g>
<image style="overflow:visible;" width="153" height="430" xlink:href="5ECA5F00.jpg"  transform="matrix(0.7499 0 0 0.7499 506 100)">
</image>
<path class="st2" d="M440.9,342.4c-0.4-12.2-0.9-25.4-0.9-39.4c0-49.1-58.2-63.8-85.5-106.5c-29.1-45.5-30-139-132-127
	c0,0-50.6,8.6-120.6,76.6C72.4,176.9,56.4,218.3,57.7,261c-1.5,48.7,67.8,43.1,97.8,81.5C195.6,382.6,239.3,463,344,463
	c38.7,0,63.7-7.3,78.9-23C443.8,418.2,442.5,384.7,440.9,342.4z"/>
</svg>
