<?xml version="1.0" encoding="utf-8"?>
<!-- Generator: Adobe Illustrator 22.1.0, SVG Export Plug-In . SVG Version: 6.00 Build 0)  -->
<svg version="1.1" id="Layer_1" xmlns="http://www.w3.org/2000/svg" xmlns:xlink="http://www.w3.org/1999/xlink" x="0px" y="0px"
	 viewBox="0 0 500 500" style="enable-background:new 0 0 500 500;" xml:space="preserve">
<style type="text/css">
	.st0{fill:#EDBD78;}
	.st1{fill:#E09E46;}
	.st2{fill:#EAE3B7;}
</style>
<image style="overflow:visible;" width="153" height="430" xlink:href="D1A8AE22.jpg"  transform="matrix(0.7499 0 0 0.7499 506 100)">
</image>
<g>
	<path class="st0" d="M328.6,51.5c-1.5,0.5-2.9,1-4.5,1.4c-39,12.7-65.7,48-68.5,88.9c-5.7,82.6-73.4,150.3-155.9,155.9
		c-40.9,2.8-76.2,29.5-88.9,68.5c-0.5,1.5-1,2.9-1.4,4.5c-21.5,66.3,30.2,133.7,99.8,129.9c186-10.2,339.1-163.1,349.2-349.2
		C462.3,81.7,394.9,30,328.6,51.5z"/>
	<g>
		<g>
			<path class="st1" d="M482.1,140.3h-31c-5.4,0-9.7-4.4-9.7-9.7c0-5.3,4.4-9.7,9.7-9.7h31c5.4,0,9.7,4.4,9.7,9.7
				C491.8,136,487.4,140.3,482.1,140.3z"/>
			<path class="st1" d="M475.2,227.1c-1.3,0-2.7-0.3-3.9-0.9l-30-13.1c-4.9-2.2-7.1-7.9-5-12.8c2.2-4.9,7.9-7.1,12.8-5l30,13.1
				c4.9,2.2,7.1,7.9,5,12.8C482.5,224.9,479,227.1,475.2,227.1z"/>
			<path class="st1" d="M124.4,310.5c-5.4,0-9.7-4.4-9.7-9.7V272c0-5.4,4.4-9.7,9.7-9.7s9.7,4.4,9.7,9.7v28.7
				C134.1,306.1,129.7,310.5,124.4,310.5z"/>
			<path class="st1" d="M79.8,317.4c-4,0-7.8-2.5-9.2-6.6l-8.7-24.7c-1.8-5,1-10.7,6-12.5s10.7,1,12.5,6l8.7,24.7
				c1.8,5-1,10.7-6,12.5C82,317.2,80.8,317.4,79.8,317.4z"/>
			<path class="st1" d="M324.2,69.2c-2.6,0-5.2-1-7.1-3.1l-19.7-20.9c-3.7-3.9-3.4-10.1,0.5-13.8s10.1-3.4,13.8,0.5l19.7,21
				c3.7,3.9,3.4,10.1-0.5,13.8C329,68.4,326.6,69.2,324.2,69.2z"/>
			<path class="st1" d="M359.5,62.9c-0.5,0-1,0-1.4-0.1c-5.3-0.8-9-5.7-8.3-11l4.1-28.4c0.8-5.3,5.7-9,11-8.3c5.3,0.8,9,5.7,8.3,11
				l-4.1,28.4C368.5,59.3,364.3,62.9,359.5,62.9z"/>
			<path class="st1" d="M265.1,496.2c-3.9,0-7.5-2.3-9-6.1L244.7,462c-2-4.9,0.4-10.7,5.4-12.7c4.9-2,10.7,0.4,12.7,5.4l11.3,28.2
				c2,4.9-0.4,10.7-5.4,12.7C267.5,496,266.3,496.2,265.1,496.2z"/>
			<path class="st1" d="M307.7,474.2c-2.2,0-4.4-0.8-6.2-2.2l-26.9-22c-4.2-3.4-4.8-9.5-1.4-13.7c3.4-4.2,9.5-4.8,13.7-1.4l26.9,22
				c4.2,3.4,4.8,9.5,1.4,13.7C313.3,473,310.5,474.2,307.7,474.2z"/>
			<path class="st1" d="M337.8,441.3c-1.6,0-3.3-0.4-4.9-1.3l-23.4-13.5c-4.7-2.7-6.3-8.7-3.6-13.3c2.7-4.7,8.7-6.3,13.3-3.6
				l23.4,13.5c4.7,2.7,6.3,8.7,3.6,13.3C344.5,439.6,341.3,441.3,337.8,441.3z"/>
		</g>
	</g>
	<circle class="st2" cx="342.3" cy="172.7" r="24.1"/>
	<circle class="st2" cx="171.7" cy="413.3" r="27.8"/>
	<circle class="st2" cx="323.8" cy="286" r="39.8"/>
	<circle class="st2" cx="367.5" cy="111.4" r="9.7"/>
	<circle class="st2" cx="385.3" cy="211.7" r="9.7"/>
	<circle class="st2" cx="308.4" cy="355.8" r="9.7"/>
	<circle class="st2" cx="218.6" cy="321.8" r="9.7"/>
	<circle class="st2" cx="101.1" cy="395.6" r="9.7"/>
</g>
</svg>
