<?xml version="1.0" encoding="utf-8"?>
<!-- Generator: Adobe Illustrator 22.1.0, SVG Export Plug-In . SVG Version: 6.00 Build 0)  -->
<svg version="1.1" id="Layer_1" xmlns="http://www.w3.org/2000/svg" xmlns:xlink="http://www.w3.org/1999/xlink" x="0px" y="0px"
	 viewBox="0 0 500 500" style="enable-background:new 0 0 500 500;" xml:space="preserve">
<style type="text/css">
	.st0{fill:#E09E46;}
	.st1{fill:#EDBD78;}
	.st2{fill:#DBD4A9;}
	.st3{fill:#EAE2B9;}
</style>
<g>
	<g>
		<path class="st0" d="M-41.2,71.2c-1.2-1.2-1.9-2.8-1.8-4.5c0-3.5,2.9-6.4,6.5-6.4l19.9,0.1c3.5,0,6.4,2.9,6.4,6.5
			c0,3.5-2.9,6.4-6.5,6.4l-19.9-0.1C-38.5,73.1-40.1,72.3-41.2,71.2"/>
		<path class="st0" d="M-470.8,68.9c-1.2-1.2-1.9-2.8-1.8-4.5c0-3.5,2.9-6.4,6.5-6.4l19.9,0.1c3.5,0,6.4,2.9,6.4,6.5
			c0,3.5-2.9,6.4-6.5,6.4l-19.9-0.1C-468,70.7-469.7,70-470.8,68.9"/>
		<path class="st0" d="M-41.3,130.4l-16.1-16.3c-2.5-2.5-2.5-6.6,0-9.1c2.5-2.5,6.6-2.5,9.1,0l16.1,16.3c2.5,2.5,2.5,6.6,0,9.1
			C-34.8,133-38.8,133-41.3,130.4"/>
		<path class="st0" d="M-57,28.1c-2.5-2.5-2.5-6.6,0-9.1l16.3-16.1c2.5-2.5,6.6-2.5,9.1,0l0,0c2.5,2.5,2.5,6.6,0,9.1l-16.3,16.1
			C-50.4,30.6-54.5,30.6-57,28.1L-57,28.1z"/>
		<path class="st0" d="M-434.8,26l-16.1-16.3c-2.5-2.5-2.5-6.6,0-9.1c2.5-2.5,6.6-2.5,9.1,0l16.1,16.3c2.5,2.5,2.5,6.6,0,9.1
			C-428.3,28.5-432.3,28.6-434.8,26"/>
		<path class="st0" d="M-451.5,128.2c-2.5-2.5-2.5-6.6,0-9.1l16.3-16.1c2.5-2.5,6.6-2.5,9.1,0c2.5,2.5,2.5,6.6,0,9.1l-16.3,16.1
			C-445,130.8-449,130.8-451.5,128.2"/>
		<path class="st0" d="M-187.2,162.9c-1.2-1.2-1.9-2.8-1.8-4.5l0.1-26.4c0-3.5,2.9-6.4,6.5-6.4c3.5,0,6.4,2.9,6.4,6.5l-0.1,26.4
			c0,3.5-2.9,6.4-6.5,6.4C-184.3,164.8-186,164.1-187.2,162.9"/>
		<path class="st0" d="M-107.9,163.3c-1.2-1.2-1.9-2.8-1.8-4.5l0.1-26.4c0-3.5,2.9-6.4,6.5-6.4c3.5,0,6.4,2.9,6.4,6.5l-0.1,26.4
			c0,3.5-2.9,6.4-6.5,6.4C-105.1,165.2-106.7,164.5-107.9,163.3"/>
		<path class="st0" d="M-106.9,4.7c-1.2-1.2-1.9-2.8-1.8-4.5l0.1-26.4c0-3.5,2.9-6.4,6.5-6.4c3.5,0,6.4,2.9,6.4,6.5l-0.1,26.4
			c0,3.5-2.9,6.4-6.5,6.4C-104.2,6.6-105.8,5.9-106.9,4.7"/>
		<path class="st0" d="M-226.8,156.1c-1.2-1.2-1.9-2.8-1.8-4.5l0.1-19.9c0-3.5,2.9-6.4,6.5-6.4c3.5,0,6.4,2.9,6.4,6.5l-0.1,19.9
			c0,3.5-2.9,6.4-6.5,6.4C-224,158-225.6,157.3-226.8,156.1"/>
		<path class="st0" d="M-266.4,162.5c-1.2-1.2-1.9-2.8-1.8-4.5l0.1-26.4c0-3.5,2.9-6.4,6.5-6.4c3.5,0,6.4,2.9,6.4,6.5l-0.1,26.4
			c0,3.5-2.9,6.4-6.5,6.4C-263.7,164.4-265.3,163.6-266.4,162.5"/>
		<path class="st0" d="M-306,155.7c-1.2-1.2-1.9-2.8-1.8-4.5l0.1-19.9c0-3.5,2.9-6.4,6.5-6.4c3.5,0,6.4,2.9,6.4,6.5l-0.1,19.9
			c0,3.5-2.9,6.4-6.5,6.4C-303.3,157.6-304.9,156.8-306,155.7"/>
		<path class="st0" d="M-305.2,3.7c-1.2-1.2-1.9-2.8-1.8-4.5l0.1-19.9c0-3.5,2.9-6.4,6.5-6.4c3.5,0,6.4,2.9,6.4,6.5l-0.1,19.9
			c0,3.5-2.9,6.4-6.5,6.4C-302.5,5.6-304.1,4.8-305.2,3.7"/>
		<path class="st0" d="M-345.7,162c-1.2-1.2-1.9-2.8-1.8-4.5l0.1-26.4c0-3.5,2.9-6.4,6.5-6.4c3.5,0,6.4,2.9,6.4,6.5l-0.1,26.4
			c0,3.5-2.9,6.4-6.5,6.4C-343,164-344.6,163.2-345.7,162"/>
		<path class="st0" d="M-385.4,155.2c-1.2-1.2-1.9-2.8-1.8-4.5l0.1-19.9c0-3.5,2.9-6.4,6.5-6.4c3.5,0,6.4,2.9,6.4,6.5l-0.1,19.9
			c0,3.5-2.9,6.4-6.5,6.4C-382.6,157.1-384.2,156.4-385.4,155.2"/>
		<path class="st0" d="M-186.3,4.3c-1.2-1.2-1.9-2.8-1.8-4.5l0.1-26.5c0-3.5,2.9-6.4,6.5-6.4c3.5,0,6.4,2.9,6.4,6.5l-0.1,26.4
			c0,3.5-2.9,6.4-6.5,6.4C-183.5,6.2-185.1,5.5-186.3,4.3"/>
		<path class="st0" d="M-225.9,4.1c-1.2-1.2-1.9-2.8-1.8-4.5l0.1-19.9c0-3.5,2.9-6.4,6.5-6.4c3.5,0,6.4,2.9,6.4,6.5l-0.1,19.9
			c0,3.5-2.9,6.4-6.5,6.4C-223.2,6-224.8,5.3-225.9,4.1"/>
		<path class="st0" d="M-344.9,3.5c-1.2-1.2-1.9-2.8-1.8-4.5l0.1-26.4c0-3.5,2.9-6.4,6.5-6.4c3.5,0,6.4,2.9,6.4,6.5L-333.9-1
			c0,3.5-2.9,6.4-6.5,6.4C-342.1,5.3-343.8,4.6-344.9,3.5"/>
		<path class="st0" d="M-384.6,3.2c-1.2-1.2-1.9-2.8-1.8-4.5l0.1-19.9c0-3.5,2.9-6.4,6.5-6.4c3.5,0,6.4,2.9,6.4,6.5l-0.1,19.9
			c0,3.5-2.9,6.4-6.5,6.4C-381.8,5.2-383.4,4.4-384.6,3.2"/>
		<path class="st0" d="M-265.6,3.9c-1.2-1.2-1.9-2.8-1.8-4.5l0.1-26.4c0-3.5,2.9-6.4,6.5-6.4c3.5,0,6.4,2.9,6.4,6.5l-0.1,26.4
			c0,3.5-2.9,6.4-6.5,6.4C-262.9,5.8-264.4,5.1-265.6,3.9"/>
		<path class="st0" d="M-146.7,4.5c-1.2-1.2-1.9-2.8-1.8-4.5l0.1-19.9c0-3.5,2.9-6.4,6.5-6.4c3.5,0,6.4,2.9,6.4,6.5L-135.6,0
			c0,3.5-2.9,6.4-6.5,6.4C-143.9,6.4-145.5,5.7-146.7,4.5"/>
		<path class="st0" d="M-147.5,156.5c-1.2-1.2-1.9-2.8-1.8-4.5l0.1-19.9c0-3.5,2.9-6.4,6.5-6.4c3.5,0,6.4,2.9,6.4,6.5l-0.1,19.9
			c0,3.5-2.9,6.4-6.5,6.4C-144.7,158.4-146.3,157.7-147.5,156.5"/>
	</g>
	<path class="st1" d="M-446.4,64.4L-446.4,64.4c0.2-36.5,29.9-66,66.4-65.7l277.6,1.4c36.5,0.2,66,29.9,65.7,66.4
		c-0.2,36.5-29.9,66-66.4,65.7l-277.5-1.4C-417.2,130.7-446.6,101-446.4,64.4"/>
	<g>
		<path class="st0" d="M-193.1,57.3c-1.2-1.2-1.9-2.9-1.9-4.7c0.1-13.5,20.6-19.5,39.6-19.4c3.5,0,6.4,2.9,6.4,6.5
			c0,3.5-2.9,6.4-6.5,6.4c-16.7-0.1-25.8,4.9-26.6,6.9c0,3.5-2.9,6.3-6.4,6.3C-190.5,59.2-191.9,58.4-193.1,57.3"/>
		<path class="st0" d="M-108.7,93.6c-9.1-9.2-13.7-28.3-13.6-47.2c0-3.5,2.9-6.4,6.5-6.4c3.5,0,6.4,2.9,6.4,6.5
			c-0.1,25.7,8.7,39.9,13.2,39.9c3.5,0,6.4,2.9,6.4,6.5c0,3.5-2.9,6.4-6.5,6.4C-101.1,99.1-105.3,97.1-108.7,93.6"/>
		<path class="st0" d="M-274.6,38.9L-274.6,38.9L-274.6,38.9 M-285.1,44.6c-1.5-1.5-2.4-3.3-2.4-5.8c0-3.5,2.9-6.4,6.5-6.4
			c2.5,0,4.5,1.4,5.6,3.3c3,1.3,12.7,3.3,27.4,3.4c3.5,0,6.4,2.9,6.4,6.5c0,3.5-2.9,6.4-6.5,6.4c-9.3,0-18-0.8-24.6-2.2
			C-275.5,49.3-281.7,48.1-285.1,44.6"/>
		<path class="st0" d="M-255.1,91.9L-255.1,91.9L-255.1,91.9z M-266.1,96.4c-1.2-1.2-1.9-2.8-1.8-4.5c0-3.5,0.1-13,46.2-12.8
			c3.5,0,6.4,2.9,6.4,6.5c0,3.5-2.9,6.4-6.5,6.4c-18.7-0.1-30.7,2-34.2,3.3c-1.2,1.8-3.2,3-5.5,3C-263.3,98.3-264.9,97.6-266.1,96.4
			L-266.1,96.4z"/>
		<path class="st0" d="M-361.9,58.1c-7-7-11.4-19.1-11.4-33c0-3.5,2.9-6.4,6.5-6.4c3.5,0,6.4,2.9,6.4,6.5
			c-0.1,15.3,6.9,26.6,13.2,26.7c3.5,0,6.4,2.9,6.4,6.5c0,3.5-2.9,6.4-6.5,6.4C-352.8,64.8-357.8,62.3-361.9,58.1"/>
		<path class="st0" d="M-418.1,102.2c-1.2-1.2-1.9-2.8-1.8-4.5c0.1-19,6.4-39.4,19.9-39.4c3.5,0,6.4,2.9,6.4,6.5
			c0,3.5-2.8,6.3-6.3,6.4c-2,1.1-7.1,10.2-7.1,26.6c0,3.5-2.9,6.4-6.5,6.4C-415.3,104.1-416.9,103.4-418.1,102.2"/>
	</g>
</g>
<image style="overflow:visible;" width="153" height="430" xlink:href="63702E26.jpg"  transform="matrix(0.7499 0 0 0.7499 506 100)">
</image>
<path class="st0" d="M375,123.6c-3,0-5.9-1.1-8.1-3.4c-4.4-4.4-4.4-11.7,0-16.3l25-25c4.4-4.4,11.7-4.4,16.3,0
	c4.4,4.4,4.4,11.7,0,16.3l-25,25C380.9,122.6,378,123.6,375,123.6"/>
<path class="st0" d="M15.8,223.5c-2-2.2-3.2-5.1-2.9-8.2c0.3-6.3,5.7-11.1,12-10.9l35.3,1.7c6.3,0.3,11.1,5.7,10.9,12
	c-0.3,6.3-5.7,11.1-12,10.9l-35.3-1.7C20.6,227.1,17.8,225.7,15.8,223.5"/>
<path class="st0" d="M274.8,484.9c-2.3,1.8-5.3,2.8-8.4,2.3c-6.2-0.7-10.7-6.4-10.1-12.8l4.2-35.1c0.7-6.2,6.4-10.7,12.8-10.1
	c6.2,0.7,10.7,6.4,10.1,12.8l-4.2,35.1C278.8,480.4,277.1,483.1,274.8,484.9"/>
<path class="st0" d="M337.2,82.4c-1.7,0-3.4-0.6-4.6-1.9c-2.5-2.5-2.5-6.7,0-9.3L346.9,57c2.5-2.5,6.7-2.5,9.3,0
	c2.5,2.5,2.5,6.7,0,9.3L342,80.5C340.6,81.7,338.9,82.4,337.2,82.4"/>
<path class="st0" d="M34.6,304.4c-1.6-0.6-2.9-1.8-3.6-3.4c-1.4-3.3,0.1-7.1,3.3-8.6l18.4-8.1c3.3-1.4,7.1,0.1,8.6,3.3
	c1.4,3.3-0.1,7.1-3.3,8.6l-18.4,8.1C37.9,305.1,36.2,305,34.6,304.4"/>
<path class="st0" d="M395.8,384.4c-0.5-1.6-0.3-3.4,0.6-4.9c1.7-3.1,5.7-4.3,8.9-2.6l17.6,9.7c3.1,1.7,4.3,5.7,2.6,8.9
	c-1.7,3.1-5.7,4.3-8.9,2.6l-17.6-9.7C397.3,387.5,396.3,386.1,395.8,384.4"/>
<path class="st0" d="M378.3,401.8c0.2-1.7,1-3.3,2.4-4.3c2.8-2.2,6.9-1.7,9.2,1.1l12.5,15.8c2.2,2.8,1.7,6.9-1.1,9.2
	c-2.8,2.2-6.9,1.7-9.2-1.1l-12.5-15.8C378.5,405.2,378.1,403.5,378.3,401.8"/>
<path class="st0" d="M117.6,403.4c1.7-0.1,3.4,0.4,4.7,1.7c2.6,2.4,2.9,6.5,0.5,9.2l-13.5,14.9c-2.4,2.6-6.5,2.9-9.2,0.5
	c-2.6-2.4-2.9-6.5-0.5-9.2l13.5-14.9C114.3,404.2,116,403.5,117.6,403.4"/>
<path class="st0" d="M235.2,67.6c-1.6,1.7-3.7,2.9-6.2,2.9c-4.9,0.3-9.2-3.6-9.5-8.6L218,34.1c-0.3-4.9,3.6-9.2,8.6-9.5
	c4.9-0.3,9.2,3.6,9.5,8.6l1.4,27.8C237.7,63.5,236.7,65.8,235.2,67.6"/>
<path class="st0" d="M179.7,87.6c-0.7,1.5-1.9,2.8-3.6,3.4c-3.3,1.3-7.1-0.4-8.5-3.7l-7.3-18.7c-1.3-3.3,0.4-7.1,3.7-8.5
	c3.3-1.3,7.1,0.4,8.5,3.7l7.3,18.7C180.5,84.3,180.3,86.1,179.7,87.6"/>
<path class="st0" d="M477.3,230.7c1.3,1.1,2.1,2.7,2.2,4.5c0.2,3.6-2.5,6.7-6.1,6.9l-20.1,1.3c-3.6,0.2-6.7-2.5-6.9-6.1
	c-0.2-3.6,2.5-6.7,6.1-6.9l20.1-1.3C474.4,228.9,476,229.5,477.3,230.7"/>
<path class="st0" d="M128.2,106.3c-0.4,1.6-1.4,3.1-2.9,4c-3,1.9-7,1-9-2.1l-10.7-17c-1.9-3-1-7,2.1-9c3-1.9,7-1,9,2.1l10.7,17
	C128.4,102.8,128.6,104.6,128.2,106.3"/>
<path class="st0" d="M465,138.7l-46.6,21c-7.2,3.3-16-0.6-19.6-8.6s-0.7-17.1,6.5-20.4l46.6-21c7.2-3.3,16,0.6,19.6,8.6
	C475.1,126.4,472.2,135.5,465,138.7"/>
<path class="st0" d="M282.3,27l1,51.1c0.2,7.9-6,14.5-13.7,14.6c-7.7,0.2-14.1-6.1-14.3-14l-1-51.1c-0.2-7.9,6-14.5,13.7-14.6
	S282.2,19.1,282.3,27"/>
<path class="st0" d="M74.5,82.6l37.6,34.6c5.8,5.4,6.3,14.3,1.1,20c-5.2,5.7-14.2,6-20,0.6l-37.6-34.6c-5.8-5.4-6.3-14.3-1.1-20
	C59.7,77.5,68.7,77.2,74.5,82.6"/>
<path class="st0" d="M13.2,335.5L61.8,320c7.6-2.4,15.6,1.6,17.9,9c2.3,7.4-1.9,15.3-9.4,17.7l-48.7,15.5c-7.6,2.4-15.6-1.6-17.9-9
	C1.4,345.8,5.6,337.9,13.2,335.5"/>
<path class="st0" d="M337.9,410.6l34.1,38c5.3,5.9,4.9,14.9-0.9,20c-5.8,5.2-14.7,4.6-20-1.3l-34.1-38c-5.3-5.9-4.9-14.9,0.9-20
	S332.6,404.7,337.9,410.6"/>
<path class="st0" d="M437.4,306.5l49.3,13.2c7.7,2,12.2,9.8,10.2,17.2c-2,7.5-9.8,11.9-17.5,9.8l-49.3-13.2
	c-7.7-2-12.2-9.8-10.2-17.2C421.9,308.8,429.8,304.4,437.4,306.5"/>
<path class="st0" d="M157.9,485.5c-6.8,0-12.3-5.5-12.3-12.3v-43.7c0-6.8,5.5-12.3,12.3-12.3s12.3,5.5,12.3,12.3v43.7
	C170.2,480.1,164.7,485.5,157.9,485.5"/>
<path class="st2" d="M344.5,280.2c-1.7,0-3.4-0.6-4.6-1.9"/>
<path class="st2" d="M311.4,303.9"/>
<path class="st1" d="M91.3,399L91.3,399C65.2,372.9,4.7,222.5,98,129.2c119-118.9,260.5-49.7,286.6-23.5
	c13.3,13.3,159.2,166,20.9,291.2C260.9,527.6,104.2,411.8,91.3,399"/>
<path class="st3" d="M262.5,241c-2.5,0-4.8-1-6.6-2.8c-13.5-13.6,0.9-40.2,19.9-59.2c3.5-3.5,9.3-3.5,12.9,0c3.5,3.5,3.5,9.3,0,12.9
	c-16.7,16.7-20.7,30.9-19.5,33.6c3.5,3.5,3.4,9.2-0.1,12.7C267.1,240.2,264.8,241,262.5,241"/>
<path class="st3" d="M368.4,248.5c3.8,0,7.4,1.5,10.2,4.3c20.7,20.9-1.3,61.9-30.6,91.2c-5.4,5.4-14.3,5.4-19.9,0
	c-5.4-5.4-5.4-14.3,0-19.9c25.7-25.7,31.9-47.6,30.1-51.8c-5.4-5.4-5.3-14.2,0.2-19.6C361.3,249.7,364.8,248.5,368.4,248.5"/>
<path class="st3" d="M196.7,166.8c-2.5,0-4.8-1-6.6-2.8c-13.5-13.6,0.9-40.2,19.9-59.2c3.5-3.5,9.3-3.5,12.9,0
	c3.5,3.5,3.5,9.3,0,12.9c-16.7,16.7-20.7,30.9-19.5,33.6c3.5,3.5,3.4,9.2-0.1,12.7C201.3,166.1,199.1,166.8,196.7,166.8"/>
<path class="st3" d="M383,192.3c-18.3,0-42.1-14.4-61-33.3c-3.5-3.5-3.5-9.3,0-12.9c3.5-3.5,9.3-3.5,12.9,0
	c25.7,25.7,48.7,31,53.2,26.4c3.5-3.5,9.3-3.5,12.9,0c3.5,3.5,3.5,9.3,0,12.9C396.1,190.2,389.9,192.3,383,192.3"/>
<path class="st3" d="M293.2,399.3c-14.9,15.2-46.3,23.3-77.5,23.7c-5.8,0.1-10.6-4.6-10.8-10.5c-0.1-5.8,4.6-10.6,10.5-10.8
	c42.4-0.5,65.5-15.4,65.3-22.8c-0.1-5.8,4.6-10.6,10.5-10.8c5.8-0.1,10.6,4.6,10.8,10.5C302.1,386.6,298.8,393.5,293.2,399.3"/>
<path class="st3" d="M163.1,304.7L163.1,304.7L163.1,304.7 M158.4,320.9c-3,0-5.8-0.9-8.2-3.3c-3.5-3.5-3.5-9.3,0-12.9
	c2.5-2.5,5.9-3.2,9-2.3c4.3-1.7,16-9.5,30.7-24.1c3.5-3.5,9.3-3.5,12.9,0c3.5,3.5,3.5,9.3,0,12.9c-9.3,9.3-18.7,17.3-26.7,22.5
	C172.6,316,165.2,320.9,158.4,320.9"/>
<path class="st3" d="M108.8,221L108.8,221L108.8,221 M93.7,203.7c2.2-3.4,5.2-6,9.8-7c6.6-1.4,13.2,2.8,14.7,9.5
	c1,4.6-0.7,9.1-3.9,12c-1.2,6.1-0.9,25.3,5,52.7c1.4,6.6-2.8,13.2-9.5,14.7c-6.6,1.4-13.2-2.8-14.7-9.5c-3.8-17.4-6-34-6.1-47
	C88.9,223.6,88.7,211.5,93.7,203.7"/>
</svg>
