<?xml version="1.0" encoding="utf-8"?>
<!-- Generator: Adobe Illustrator 22.1.0, SVG Export Plug-In . SVG Version: 6.00 Build 0)  -->
<svg version="1.1" id="Layer_1" xmlns="http://www.w3.org/2000/svg" xmlns:xlink="http://www.w3.org/1999/xlink" x="0px" y="0px"
	 viewBox="0 0 514 260" style="enable-background:new 0 0 514 260;" xml:space="preserve">
<style type="text/css">
	.st0{fill:#F4EBB8;}
	.st1{fill:#FFF7C0;}
</style>
<g>
	<path class="st0" d="M411.4,41.9c-27.2,9.1-48.5,4.8-75.2-17.1c-26.7-21.9-61.9,2.9-61.9,2.9s-20,20.9-67.6,20.9s-48.5-20-48.5-20
		S152.5-1,132.5,4.7s-1,25.7-36.2,43.8s-30.5-1-51.4,0s-12.4,53.3-12.4,53.3s5.7,27.6-12.4,35.2c-18.1,7.6-25.7,31.4,4.8,35.2
		s40,2.9,42.8,18.1c2.9,15.2-1.9,30.5,22.8,31.4c24.7,1,29.5-5.7,41.9,6.7s13.3,18.1,27.6,10.5c14.3-7.6,15.2-40,44.7-24.7
		c29.5,15.2,16.2,8.6,16.2,8.6s15.2,9.5,20.9,17.1c5.7,7.6,20.9,11.4,27.6,2.9c6.7-8.6,24.7-24.7,50.4-25.7
		c25.7-1,28.6,8.6,28.6,8.6s21.9,42.8,50.4,27.6c28.6-15.2,21.9-11.4,21.9-11.4s17.1-9.5,26.7-27.6s8.6-29.5,21.9-33.3
		c13.3-3.8,40-8.6,39-37.1c-1-28.6-20.9-14.3-23.8-37.1c-2.9-22.8,1.9-29.5,1.9-29.5s15.2-20.9-11.4-33.3
		c-13.3-4.8-37.1,8.6-43.8,7.6S417.1,40,411.4,41.9z"/>
	<path class="st1" d="M399.8,66.1L135.2,60c0,0-75.7-3.9-75.6,67.5s67.7,66.8,67.7,66.8l271.6,1.9c0,0,67.6-4.6,68.1-66.7
		C467.3,67.4,399.8,66.1,399.8,66.1z"/>
	<circle class="st0" cx="140.5" cy="93.5" r="22.5"/>
	<circle class="st0" cx="210.5" cy="151.5" r="32.5"/>
	<circle class="st0" cx="303.5" cy="145.5" r="16.5"/>
	<circle class="st0" cx="401" cy="116" r="36"/>
</g>
</svg>
