<?xml version="1.0" encoding="utf-8"?>
<!-- Generator: Adobe Illustrator 22.1.0, SVG Export Plug-In . SVG Version: 6.00 Build 0)  -->
<svg version="1.1" id="Layer_1" xmlns="http://www.w3.org/2000/svg" xmlns:xlink="http://www.w3.org/1999/xlink" x="0px" y="0px"
	 viewBox="0 0 448 448" style="enable-background:new 0 0 448 448;" xml:space="preserve">
<style type="text/css">
	.st0{fill:#508993;}
	.st1{fill:#F6B47B;}
	.st2{fill:#8D5F3D;}
	.st3{fill:#835438;}
	.st4{fill:#6EC4DB;}
	.st5{fill:#5EA6B7;}
	.st6{fill:#E2A071;}
	.st7{fill:#FDC88E;}
	.st8{fill:#623F33;}
</style>
<g>
	<path class="st0" d="M224,264c-22,0.1-63.3,2.7-80,8l80,74l80-74C287.3,266.7,246,264.2,224,264z"/>
	<path class="st1" d="M380.6,421l-10.1-81c-1.5-12.2-9.9-22.5-21.6-26.4l-28.9-9.6c0.1-0.5,1.1-7.6-7.5-13.3
		c-7-4.7,2.2-13.2-8.5-18.7l-26.8,24.2c-3.2-3-5.1-7.2-5.1-11.7v-25.8l34.5-14.4c17.9-7.5,29.5-24.9,29.5-44.3v-8
		c13.3,0,24-10.7,24-24c0-7.1-3.1-13.4-7.9-17.8l3-57.6C357.8,42.3,317.7,0,267.2,0h-86.5c-50.4,0-90.5,42.3-87.9,92.6l3,57.6
		c-4.9,4.4-7.9,10.7-7.9,17.8c0,13.3,10.7,24,24,24v8c0,19.4,11.7,36.9,29.5,44.3l34.5,14.4v25.8c0,4.6-1.9,8.8-5.1,11.7L144,272
		c-10.7,5.5-1.5,14-8.5,18.7c-8.9,5.9-7.5,13.3-7.5,13.3l-28.9,9.6C87.4,317.5,79,327.8,77.5,340l-10.1,81c-1.8,14.3,9.4,27,23.8,27
		h265.6C371.3,448,382.4,435.3,380.6,421z"/>
	<g>
		<path class="st2" d="M180.8,0c-50.4,0-90.5,42.3-87.9,92.6L96,152h256l3.1-59.4C357.8,42.3,317.7,0,267.2,0H180.8z"/>
	</g>
	<g>
		<path class="st3" d="M92.9,92.6L96,152h8h52C186.5,57.5,256,0,256,0h-75.2C130.3,0,90.2,42.3,92.9,92.6z"/>
	</g>
	<g>
		<g>
			<path class="st4" d="M380.6,421l-10.1-81c-1.5-12.2-9.9-22.5-21.6-26.4l-45.2-15.1c-3.6-1.2-7.6,0.3-9.4,3.6
				C280.7,327.1,227.1,344,224,344s-56.7-16.9-70.3-41.8c-1.8-3.3-5.8-4.8-9.4-3.6l-45.2,15.1C87.4,317.5,79,327.8,77.5,340
				l-10.1,81c-1.8,14.3,9.4,27,23.8,27h265.6C371.2,448,382.4,435.3,380.6,421z"/>
		</g>
	</g>
	<g>
		<path class="st5" d="M84.2,324.2c-3.6,4.5-5.9,9.9-6.7,15.8l-10.1,81c-1.8,14.3,9.4,27,23.8,27H136v-52.1c0-7.7-2.8-15.1-7.8-21
			L84.2,324.2z"/>
	</g>
	<g>
		<path class="st5" d="M363.8,324.2c3.6,4.5,5.9,9.9,6.7,15.8l10.1,81c1.8,14.3-9.4,27-23.8,27H312v-52.1c0-7.7,2.8-15.1,7.8-21
			L363.8,324.2z"/>
	</g>
	<g>
		<path class="st6" d="M272,258.7l-96-21.3v47.1c0,5.8-3.2,10.8-8,13.7C235.1,309.9,272,258.7,272,258.7z"/>
	</g>
	<path class="st7" d="M336,144v-16c0-22.1-17.9-40-40-40H152c-22.1,0-40,17.9-40,40v16c-13.3,0-24,10.7-24,24s10.7,24,24,24v8
		c0,19.4,11.7,36.9,29.5,44.3l51.7,21.5c9.8,4.1,20.2,6.2,30.8,6.2l0,0c10.6,0,21-2.1,30.8-6.2l51.7-21.5
		c17.9-7.5,29.5-24.9,29.5-44.3v-8c13.3,0,24-10.7,24-24S349.3,144,336,144z"/>
	<g>
		<path class="st8" d="M168,176L168,176c-4.4,0-8-3.6-8-8v-8c0-4.4,3.6-8,8-8l0,0c4.4,0,8,3.6,8,8v8C176,172.4,172.4,176,168,176z"
			/>
	</g>
	<g>
		<path class="st8" d="M280,176L280,176c-4.4,0-8-3.6-8-8v-8c0-4.4,3.6-8,8-8l0,0c4.4,0,8,3.6,8,8v8C288,172.4,284.4,176,280,176z"
			/>
	</g>
	<g>
		<g>
			<path class="st6" d="M224,232.2c-14.2,0-27.5-3.5-36.5-9.6c-3.7-2.5-4.6-7.5-2.1-11.1c2.5-3.6,7.5-4.6,11.1-2.1
				c6.3,4.3,16.6,6.8,27.5,6.8s21.2-2.6,27.5-6.8c3.7-2.5,8.6-1.5,11.1,2.1c2.5,3.7,1.5,8.6-2.1,11.1
				C251.5,228.7,238.2,232.2,224,232.2z"/>
		</g>
	</g>
	<path class="st1" d="M189,152c45.3-27.3,69-63,69-63l-114-0.2c-18.3,3.7-32,19.8-32,39.2v16c-13.3,0-24,10.7-24,24s10.7,24,24,24v8
		c0,19.4,11.7,36.9,29.5,44.3l51.7,21.5c2.5,1.1,5.1,2,7.7,2.7c-22.8-16.7-38.1-31.3-47-40.9c-6.5-6.9-10-16.1-10-25.6v-71.4
		L189,152z"/>
	<g>
		<path class="st5" d="M312.4,290.7c-7-4.7,2.2-13.2-8.5-18.7l-80,72l-80-72c-10.7,5.5-1.5,14-8.5,18.7c-8.9,5.9-7.5,13.3-7.5,13.3
			l95.9,48v0l0,0l0,0v0l95.9-48C319.9,304,321.3,296.6,312.4,290.7z"/>
	</g>
	<g>
		<path class="st2" d="M120,104l32,16l24-8l-8,16l16,8c0,0,27.3-13.5,56-45v37c0,0,22-0.5,32-8l8-32c0,0,8,23.3,16,40l16-8V72H120
			V104z"/>
	</g>
	<path class="st3" d="M120,72v32l32,16l19.2-6.4c7.2-15.2,15.2-29.1,23.3-41.6L120,72z"/>
</g>
</svg>
