<?xml version="1.0" encoding="utf-8"?>
<!-- Generator: Adobe Illustrator 22.1.0, SVG Export Plug-In . SVG Version: 6.00 Build 0)  -->
<svg version="1.1" id="Capa_1" xmlns="http://www.w3.org/2000/svg" xmlns:xlink="http://www.w3.org/1999/xlink" x="0px" y="0px"
	 viewBox="0 0 512 512" style="enable-background:new 0 0 512 512;" xml:space="preserve">
<style type="text/css">
	.st0{fill:#DAF3F5;}
	.st1{fill:#B1CFDB;}
	.st2{fill:#7AACC2;}
	.st3{fill:#6EC4DB;}
	.st4{fill:#62ABBC;}
</style>
<path class="st0" d="M256,0c-8.3,0-15,6.7-15,15v86.6c0,8.3,6.7,15,15,15s15-6.7,15-15V15C271,6.7,264.3,0,256,0z"/>
<path class="st1" d="M271,413.8v-50.5c0-8.3-6.7-15-15-15s-15,6.7-15,15v50.5c-20.4,6.4-35.3,25.5-35.3,48
	c0,27.7,22.5,50.3,50.3,50.3s50.3-22.5,50.3-50.3C306.3,439.3,291.4,420.2,271,413.8z M256,482c-11.2,0-20.3-9.1-20.3-20.3
	s9.1-20.3,20.3-20.3s20.3,9.1,20.3,20.3S267.2,482,256,482z"/>
<path class="st2" d="M314.6,347.6V141.7c0-1.1-0.1-2.2-0.4-3.3l-9.1-40.2c-1.5-6.8-7.6-11.7-14.6-11.7h-69c-7,0-13.1,4.9-14.6,11.7
	l-9.1,40.2c-0.2,1.1-0.4,2.2-0.4,3.3v205.9H314.6z"/>
<path class="st1" d="M256,347.6V86.6h-34.5c-7,0-13.1,4.9-14.6,11.7l-9.1,40.2c-0.2,1.1-0.4,2.2-0.4,3.3v205.9H256z"/>
<path class="st3" d="M314.2,138.4l-9.1-40.2c-1.5-6.8-7.6-11.7-14.6-11.7h-69c-7,0-13.1,4.9-14.6,11.7l-9.1,40.2H314.2z"/>
<path class="st0" d="M241,363.3v50.5c-20.4,6.4-35.3,25.5-35.3,48c0,27.7,22.5,50.3,50.3,50.3v-30c-11.2,0-20.3-9.1-20.3-20.3
	s9.1-20.3,20.3-20.3v-2.1v-27.9v-63.2C247.7,348.3,241,355,241,363.3z"/>
<path class="st3" d="M347.7,342.2c-2.5-7.9-11-12.2-18.9-9.7c-47.6,15.3-98,15.3-145.6,0c-7.9-2.5-16.3,1.8-18.9,9.7
	c-2.5,7.9,1.8,16.3,9.7,18.9c26.8,8.6,54.4,13,82,13s55.2-4.3,82-13C345.9,358.6,350.2,350.1,347.7,342.2z"/>
<g>
	<g>
		<path class="st4" d="M256,344c-24.5,0-49-3.8-72.8-11.5c-7.9-2.5-16.3,1.8-18.9,9.7c-2.5,7.9,1.8,16.3,9.7,18.9
			c26.8,8.6,54.4,13,82,13V344z"/>
		<path class="st4" d="M256,86.6h-34.5c-7,0-13.1,4.9-14.6,11.7l-9.1,40.2H256V86.6z"/>
	</g>
</g>
</svg>
